<svg width="250" height="242" viewBox="0 0 250 242" fill="none" xmlns="http://www.w3.org/2000/svg">
<g clip-path="url(#clip0_375_370)">
<path d="M76.4542 30.4182C19.4176 48.7482 8.87181 112.195 10.7285 141.628C13.5136 193.041 58.6301 219.865 113.773 219.865C227.4 216.512 250.289 101.551 180.613 53.8888C143.851 28.7414 162.789 1.91703 138.281 2.47587C113.773 3.03471 84.809 49.4189 78.682 47.1835C72.555 44.9481 87.037 26.5063 76.4542 30.4182Z" fill="#6CE9A6"/>
<ellipse cx="58.4342" cy="131.001" rx="36.7618" ry="38.0012" fill="white"/>
<ellipse cx="69.5744" cy="128.766" rx="21.1659" ry="21.236" fill="#053321"/>
<path d="M183.199 113.675C188.769 137.147 170.13 141.647 149.054 144.169C120.815 146.647 110.79 135.47 110.789 123.735C110.789 109.205 124.714 98.028 143.382 96.4463C167.603 92.9983 180.431 102.008 183.199 113.675Z" fill="white"/>
<ellipse cx="154.237" cy="123.175" rx="21.1659" ry="21.236" fill="#053321"/>
<path d="M140.313 145.532C157.58 119.266 191.557 130.443 191.557 130.443C183.574 139.012 162.148 154.027 140.313 145.532Z" fill="#6CE9A6"/>
<path d="M49.5217 84.0576C76.5923 84.0577 98.5373 106.075 98.5374 133.235C98.5374 160.396 76.5923 182.414 49.5217 182.414C22.4511 182.414 0.506104 160.396 0.506104 133.235C0.506185 106.075 22.4511 84.0576 49.5217 84.0576ZM49.5208 95.2354C28.6025 95.2354 11.6448 112.249 11.6448 133.236C11.6448 154.224 28.6025 171.237 49.5208 171.237C70.4389 171.237 87.3967 154.224 87.3967 133.236C87.3967 112.249 70.4389 95.2355 49.5208 95.2354Z" fill="#027A48"/>
<path d="M150.896 68.4113C177.966 68.4113 199.912 90.4288 199.912 117.589C199.912 144.749 177.966 166.768 150.896 166.768C123.825 166.768 101.88 144.749 101.88 117.589C101.88 90.4289 123.825 68.4114 150.896 68.4113ZM150.876 80.0001C129.958 80.0001 113 97.0137 113 118.001C113 138.989 129.958 156.002 150.876 156.002C171.794 156.002 188.752 138.989 188.752 118.001C188.752 97.0137 171.794 80.0002 150.876 80.0001Z" fill="#027A48"/>
<rect width="15.5973" height="10.0583" transform="matrix(0.986737 -0.162327 0.161285 0.986908 92.9678 121.241)" fill="#027948"/>
<path d="M95.7525 151.119C93.5245 144.413 98.5375 140.873 101.322 139.942C121.931 136.589 122.24 169.834 109.678 172.355C104.108 173.473 97.9806 171.796 99.0946 166.208C99.9753 161.79 98.5375 159.501 95.7525 151.119Z" fill="#053321"/>
</g>
<defs>
<clipPath id="clip0_375_370">
<rect width="249.017" height="241.42" fill="white" transform="translate(0.506104 0.232666)"/>
</clipPath>
</defs>
</svg>
