<svg width="52" height="56" viewBox="0 0 52 56" fill="none" xmlns="http://www.w3.org/2000/svg">
<path d="M51.3577 38.0222C53.4952 29.3947 49.7886 20.6667 47.6681 17.3812C46.6896 15.6187 46.1577 16.3376 46.0141 16.9174C46.2685 19.3139 45.9378 21.9269 42.5788 13.2066C39.2199 4.4864 19.8315 -5.60346 22.7359 3.72625C25.7458 13.3946 17.0055 17.6132 14.8425 16.9174C12.6796 16.2217 15.097 13.3226 14.8425 13.2066C14.5881 13.0907 7.97208 15.4099 3.26454 30.8326C-1.44299 46.2554 15.9876 56.228 27.5656 55.996C39.1436 55.7641 48.6859 48.8065 51.3577 38.0222Z" fill="#FEC84B"/>
<ellipse cx="13.9294" cy="34.0968" rx="8.83978" ry="9.15439" fill="white"/>
<ellipse cx="16.6081" cy="33.5581" rx="5.08957" ry="5.11569" fill="black"/>
<path d="M43.931 29.9235C45.2704 35.5778 40.7884 36.6618 35.7203 37.2693C28.9301 37.8663 26.5193 35.1738 26.5192 32.3469C26.5192 28.8467 29.8677 26.1542 34.3564 25.7732C40.1808 24.9425 43.2653 27.113 43.931 29.9235Z" fill="white"/>
<ellipse cx="36.9664" cy="32.2124" rx="5.08957" ry="5.11569" fill="black"/>
<path d="M33.6179 37.5971C37.7699 31.2697 45.94 33.9622 45.94 33.9622C44.0203 36.0265 38.8682 39.6434 33.6179 37.5971Z" fill="#FEC84B"/>
<path d="M11.7861 22.7881C18.2956 22.7881 23.5732 28.0929 23.5732 34.6357C23.573 41.1784 18.2954 46.4824 11.7861 46.4824C5.27697 46.4823 0.000253817 41.1783 0 34.6357C0 28.093 5.27681 22.7882 11.7861 22.7881ZM11.7861 25.4805C6.75623 25.4806 2.67871 29.58 2.67871 34.6357C2.67896 39.6913 6.75638 43.7899 11.7861 43.79C16.816 43.79 20.8933 39.6914 20.8936 34.6357C20.8936 29.5799 16.8162 25.4805 11.7861 25.4805Z" fill="#F79009"/>
<path d="M36.1626 19.0186C42.672 19.0186 47.9487 24.3234 47.9487 30.8662C47.9485 37.4089 42.6719 42.7129 36.1626 42.7129C29.6534 42.7128 24.3767 37.4088 24.3765 30.8662C24.3765 24.3234 29.6532 19.0186 36.1626 19.0186ZM36.1206 21.8301C31.0906 21.8301 27.0132 25.9285 27.0132 30.9844C27.0133 36.0401 31.0907 40.1387 36.1206 40.1387C41.1505 40.1387 45.2279 36.0401 45.228 30.9844C45.228 25.9285 41.1506 21.8301 36.1206 21.8301Z" fill="#F79009"/>
<rect width="3.75072" height="2.4229" transform="matrix(0.98669 -0.162614 0.161001 0.986954 22.2334 31.7451)" fill="#F79009"/>
<path d="M22.903 38.9435C22.3673 37.328 23.5727 36.4754 24.2424 36.251C29.198 35.4433 29.2722 43.4519 26.2515 44.0592C24.9121 44.3284 23.4388 43.9246 23.7067 42.5783C23.9185 41.514 23.5727 40.9628 22.903 38.9435Z" fill="black"/>
</svg>
