<svg width="121" height="117" viewBox="0 0 121 117" fill="none" xmlns="http://www.w3.org/2000/svg">
<g clip-path="url(#clip0_383_1810)">
<path d="M38.3834 104.594L45.141 105.675C44.8707 106.846 44.6003 109.675 45.6815 111.621C46.7627 113.567 46.6726 115.855 46.4924 116.486H33.7883C31.6259 109.729 38.9241 111.35 38.6537 111.08C38.005 109.35 38.2032 106.035 38.3834 104.594Z" fill="#240B01"/>
<path d="M36.8566 14.5987C9.17757 23.4635 4.05983 54.1479 4.96084 68.382C6.31244 93.2467 28.2068 106.219 54.9668 106.219C110.109 104.598 121.216 49.0002 87.4032 25.9496C69.5632 13.7878 78.7535 0.814939 66.8602 1.08521C54.9668 1.35547 40.9111 23.7878 37.9377 22.7068C34.9644 21.6257 41.9923 12.7068 36.8566 14.5987Z" fill="#FEC84B"/>
<path d="M67.0355 112.722C65.3055 108.182 65.2334 102.002 65.4136 99.4794C65.4136 98.4884 66.0624 96.4524 68.6573 96.2361C71.9009 95.9659 72.1712 98.3983 72.1712 99.4794C72.1712 100.56 72.9821 111.641 75.1446 112.722C76.8745 113.587 77.1268 115.786 77.0367 116.506H63.2512C63.2512 113.047 65.774 112.542 67.0355 112.722Z" fill="#240B01"/>
<ellipse cx="28.1115" cy="63.2427" rx="17.84" ry="18.3782" fill="white"/>
<ellipse cx="33.5176" cy="62.1615" rx="10.2715" ry="10.2702" fill="#240B01"/>
<path d="M88.6593 54.8641C91.3624 66.2156 82.3172 68.392 72.089 69.6115C58.3853 70.8101 53.5199 65.4046 53.5198 59.7293C53.5198 52.7024 60.2774 47.297 69.3364 46.532C81.0909 44.8645 87.3158 49.2218 88.6593 54.8641Z" fill="white"/>
<ellipse cx="74.6036" cy="59.4589" rx="10.2715" ry="10.2702" fill="#240B01"/>
<path d="M67.8462 70.2697C76.2256 57.567 92.7141 62.9725 92.7141 62.9725C88.8397 67.1167 78.4421 74.378 67.8462 70.2697Z" fill="#FEC84B"/>
<path d="M3.2965 93.5126L8.43226 82.7019L14.3789 85.1343L8.43226 97.0261C8.43226 97.0261 7.35108 99.7288 4.37772 98.3774C1.40436 97.0261 3.2965 93.5126 3.2965 93.5126Z" fill="#240B01"/>
<path d="M23.7874 40.5403C36.924 40.5405 47.5733 51.1885 47.5735 64.3235C47.5735 77.4586 36.9242 88.1074 23.7874 88.1077C10.6503 88.1077 0.000244141 77.4588 0.000244141 64.3235C0.000447234 51.1884 10.6505 40.5403 23.7874 40.5403ZM23.7874 45.9456C13.6362 45.9456 5.40674 54.1737 5.40649 64.3235C5.40649 74.4735 13.636 82.7024 23.7874 82.7024C33.9386 82.7023 42.1682 74.4734 42.1682 64.3235C42.168 54.1738 33.9384 45.9457 23.7874 45.9456Z" fill="#B54708"/>
<path d="M72.9817 32.9727C86.1186 32.9727 96.7687 43.6207 96.7688 56.7559C96.7688 69.8912 86.1187 80.54 72.9817 80.54C59.8447 80.54 49.1956 69.8911 49.1956 56.7559C49.1957 43.6207 59.8448 32.9727 72.9817 32.9727ZM72.9817 38.3779C62.8304 38.3779 54.6009 46.606 54.6008 56.7559C54.6008 66.9059 62.8304 75.1348 72.9817 75.1348C83.133 75.1348 91.3625 66.9059 91.3625 56.7559C91.3624 46.606 83.1329 38.3779 72.9817 38.3779Z" fill="#B54708"/>
<rect width="7.56846" height="4.86483" transform="matrix(0.986826 -0.161785 0.161826 0.986819 44.8706 58.5212)" fill="#B54708"/>
<path d="M46.2221 72.9723C45.1409 69.7291 47.5736 68.0174 48.9251 67.5669C58.9262 65.9453 59.076 82.0233 52.9797 83.2424C50.2767 83.783 47.3034 82.9722 47.844 80.2695C48.2713 78.1328 47.5736 77.0263 46.2221 72.9723Z" fill="#240B01"/>
<path d="M84.6047 58.6838H105.418C105.973 58.6838 106.652 58.857 107.043 59.2639C107.373 59.6072 107.645 60.2794 107.051 61.6643C105.749 64.7025 103.619 70.1534 102.718 72.4954L102.626 72.7336L102.741 72.9622L114.906 97.0159L114.915 97.0354L114.927 97.0549C115.353 97.7581 115.752 98.6311 115.981 99.5334C116.21 100.44 116.259 101.337 116.03 102.114C115.806 102.87 115.309 103.555 114.357 104.052C113.386 104.559 111.918 104.881 109.757 104.828C100.881 104.612 84.6027 104.737 77.5735 104.827C75.9724 104.827 73.9749 104.339 72.9065 103.038C71.8989 101.811 71.5313 99.6029 73.7532 95.6887C78.2915 87.6936 84.6504 76.8689 87.2629 72.4553L87.4192 72.1917L87.2883 71.9153L82.7063 62.2122C82.4608 61.549 82.3047 60.6182 82.5217 59.8948C82.6261 59.5471 82.8113 59.2601 83.1086 59.054C83.4103 58.8448 83.8779 58.6839 84.6047 58.6838Z" fill="#FFFAF0" fill-opacity="0.8" stroke="white" stroke-width="1.15234"/>
<path d="M78.3883 96.4855L85.1459 84.0532H104.337L109.743 94.8639C111.69 98.7558 108.572 100.449 106.77 100.81H81.0914C76.7665 100.81 77.4873 97.927 78.3883 96.4855Z" fill="#FFF395"/>
<ellipse cx="94.7226" cy="84.046" rx="9.7675" ry="1.81721" fill="#F6E6A2"/>
<ellipse cx="88.6601" cy="91.8912" rx="2.70303" ry="2.70268" fill="#F5D877"/>
<ellipse cx="103.797" cy="94.5938" rx="2.70303" ry="2.70268" fill="#F5D877"/>
<ellipse cx="98.6613" cy="95.4046" rx="1.35152" ry="1.35134" fill="#F5D877"/>
<rect width="4.06195" height="17.2459" rx="2.03098" transform="matrix(0.912072 -0.41003 0.410119 0.912032 97.3098 82.7458)" fill="white"/>
<ellipse cx="104.878" cy="73.5128" rx="5.94667" ry="7.02696" fill="#240B01"/>
<ellipse cx="90.8227" cy="51.0806" rx="4.86546" ry="4.59455" fill="#FFE3C7"/>
<path d="M102.176 35.1348C105.962 35.1349 109.142 37.6436 110.034 41.0352C110.586 40.7203 111.225 40.54 111.906 40.54C113.996 40.5401 115.69 42.2346 115.69 44.3242C115.69 46.4137 113.996 48.1073 111.906 48.1074C110.829 48.1074 109.859 47.6571 109.17 46.9355C107.761 49.253 105.157 50.8104 102.176 50.8105C97.6971 50.8105 94.0663 47.3013 94.0662 42.9727C94.0662 38.644 97.697 35.1348 102.176 35.1348Z" fill="#FFE3C7"/>
</g>
<defs>
<clipPath id="clip0_383_1810">
<rect width="120.844" height="116.756" fill="white"/>
</clipPath>
</defs>
</svg>
