<svg width="115" height="51" viewBox="0 0 115 51" fill="none" xmlns="http://www.w3.org/2000/svg">
<g opacity="0.56" filter="url(#filter0_d_1431_58857)">
<mask id="path-1-outside-1_1431_58857" maskUnits="userSpaceOnUse" x="2.79688" y="8.43719" width="107" height="37" fill="black">
<rect fill="white" x="2.79688" y="8.43719" width="107" height="37"/>
<path d="M6.39283 41.4372V12.1344H26.0984V17.4443H12.4894V24.0915H25.3118V29.4014H12.4894V36.1273H26.0984V41.4372H6.39283ZM42.5736 41.9092C40.7381 41.9092 39.0074 41.5814 37.3817 40.9259C35.7822 40.2441 34.3924 39.287 33.2124 38.0546C32.0587 36.8222 31.1933 35.3669 30.6165 33.6887L35.6117 31.4467C36.3459 33.0462 37.3555 34.3049 38.6403 35.2226C39.9514 36.1404 41.3936 36.5993 42.9669 36.5993C43.806 36.5993 44.5271 36.4682 45.1302 36.206C45.7333 35.9437 46.2053 35.5898 46.5462 35.144C46.8871 34.672 47.0575 34.1213 47.0575 33.492C47.0575 32.8102 46.8477 32.2334 46.4282 31.7614C46.0086 31.2632 45.3531 30.8698 44.4615 30.5814L38.719 28.6934C36.3853 27.933 34.6284 26.8579 33.4484 25.4682C32.2684 24.0522 31.6785 22.3609 31.6785 20.3943C31.6785 18.6636 32.098 17.1428 32.9371 15.8317C33.8024 14.5206 34.9955 13.498 36.5164 12.7637C38.0634 12.0295 39.8334 11.6624 41.8263 11.6624C43.5831 11.6624 45.2089 11.964 46.7035 12.5671C48.1981 13.1702 49.483 14.0224 50.5581 15.1237C51.6594 16.225 52.4854 17.5492 53.036 19.0963L48.0801 21.3382C47.5295 19.9747 46.7035 18.9127 45.6022 18.1523C44.5009 17.3657 43.2422 16.9723 41.8263 16.9723C41.0134 16.9723 40.2923 17.1034 39.663 17.3657C39.0336 17.6279 38.5485 18.0081 38.2077 18.5063C37.8668 18.9783 37.6963 19.5289 37.6963 20.1583C37.6963 20.84 37.9192 21.4431 38.365 21.9676C38.8108 22.4658 39.4794 22.8591 40.371 23.1475L45.9955 24.9568C48.3555 25.7173 50.1123 26.7793 51.2661 28.1428C52.4461 29.5063 53.036 31.1714 53.036 33.138C53.036 34.8424 52.5903 36.3633 51.6987 37.7006C50.8072 39.0117 49.5748 40.0474 48.0015 40.8079C46.4544 41.5421 44.6451 41.9092 42.5736 41.9092ZM59.7407 41.4372V12.1344H79.8003V17.4443H65.8373V24.8782H77.8337V30.1881H65.8373V41.4372H59.7407ZM85.1855 41.4372V12.1344H96.4346C98.4537 12.1344 100.237 12.4884 101.784 13.1964C103.357 13.9044 104.59 14.9533 105.481 16.343C106.373 17.7328 106.818 19.4503 106.818 21.4956C106.818 23.4884 106.36 25.1797 105.442 26.5695C104.55 27.9592 103.318 29.0212 101.745 29.7554C100.197 30.4634 98.4275 30.8174 96.4346 30.8174H91.2821V41.4372H85.1855ZM91.2821 25.5075H96.474C97.3393 25.5075 98.0866 25.3371 98.7159 24.9962C99.3452 24.6553 99.8303 24.1833 100.171 23.5802C100.538 22.9771 100.722 22.2822 100.722 21.4956C100.722 20.6827 100.538 19.9747 100.171 19.3716C99.8303 18.7685 99.3452 18.2965 98.7159 17.9556C98.0866 17.6148 97.3393 17.4443 96.474 17.4443H91.2821V25.5075Z"/>
</mask>
<path d="M6.39283 41.4372V12.1344H26.0984V17.4443H12.4894V24.0915H25.3118V29.4014H12.4894V36.1273H26.0984V41.4372H6.39283ZM42.5736 41.9092C40.7381 41.9092 39.0074 41.5814 37.3817 40.9259C35.7822 40.2441 34.3924 39.287 33.2124 38.0546C32.0587 36.8222 31.1933 35.3669 30.6165 33.6887L35.6117 31.4467C36.3459 33.0462 37.3555 34.3049 38.6403 35.2226C39.9514 36.1404 41.3936 36.5993 42.9669 36.5993C43.806 36.5993 44.5271 36.4682 45.1302 36.206C45.7333 35.9437 46.2053 35.5898 46.5462 35.144C46.8871 34.672 47.0575 34.1213 47.0575 33.492C47.0575 32.8102 46.8477 32.2334 46.4282 31.7614C46.0086 31.2632 45.3531 30.8698 44.4615 30.5814L38.719 28.6934C36.3853 27.933 34.6284 26.8579 33.4484 25.4682C32.2684 24.0522 31.6785 22.3609 31.6785 20.3943C31.6785 18.6636 32.098 17.1428 32.9371 15.8317C33.8024 14.5206 34.9955 13.498 36.5164 12.7637C38.0634 12.0295 39.8334 11.6624 41.8263 11.6624C43.5831 11.6624 45.2089 11.964 46.7035 12.5671C48.1981 13.1702 49.483 14.0224 50.5581 15.1237C51.6594 16.225 52.4854 17.5492 53.036 19.0963L48.0801 21.3382C47.5295 19.9747 46.7035 18.9127 45.6022 18.1523C44.5009 17.3657 43.2422 16.9723 41.8263 16.9723C41.0134 16.9723 40.2923 17.1034 39.663 17.3657C39.0336 17.6279 38.5485 18.0081 38.2077 18.5063C37.8668 18.9783 37.6963 19.5289 37.6963 20.1583C37.6963 20.84 37.9192 21.4431 38.365 21.9676C38.8108 22.4658 39.4794 22.8591 40.371 23.1475L45.9955 24.9568C48.3555 25.7173 50.1123 26.7793 51.2661 28.1428C52.4461 29.5063 53.036 31.1714 53.036 33.138C53.036 34.8424 52.5903 36.3633 51.6987 37.7006C50.8072 39.0117 49.5748 40.0474 48.0015 40.8079C46.4544 41.5421 44.6451 41.9092 42.5736 41.9092ZM59.7407 41.4372V12.1344H79.8003V17.4443H65.8373V24.8782H77.8337V30.1881H65.8373V41.4372H59.7407ZM85.1855 41.4372V12.1344H96.4346C98.4537 12.1344 100.237 12.4884 101.784 13.1964C103.357 13.9044 104.59 14.9533 105.481 16.343C106.373 17.7328 106.818 19.4503 106.818 21.4956C106.818 23.4884 106.36 25.1797 105.442 26.5695C104.55 27.9592 103.318 29.0212 101.745 29.7554C100.197 30.4634 98.4275 30.8174 96.4346 30.8174H91.2821V41.4372H85.1855ZM91.2821 25.5075H96.474C97.3393 25.5075 98.0866 25.3371 98.7159 24.9962C99.3452 24.6553 99.8303 24.1833 100.171 23.5802C100.538 22.9771 100.722 22.2822 100.722 21.4956C100.722 20.6827 100.538 19.9747 100.171 19.3716C99.8303 18.7685 99.3452 18.2965 98.7159 17.9556C98.0866 17.6148 97.3393 17.4443 96.474 17.4443H91.2821V25.5075Z" fill="#F5FBFF"/>
<path d="M6.39283 41.4372H3.67425V44.1558H6.39283V41.4372ZM6.39283 12.1344V9.41584H3.67425V12.1344H6.39283ZM26.0984 12.1344H28.817V9.41584H26.0984V12.1344ZM26.0984 17.4443V20.1629H28.817V17.4443H26.0984ZM12.4894 17.4443V14.7257H9.7708V17.4443H12.4894ZM12.4894 24.0915H9.7708V26.8101H12.4894V24.0915ZM25.3118 24.0915H28.0304V21.373H25.3118V24.0915ZM25.3118 29.4014V32.12H28.0304V29.4014H25.3118ZM12.4894 29.4014V26.6828H9.7708V29.4014H12.4894ZM12.4894 36.1273H9.7708V38.8459H12.4894V36.1273ZM26.0984 36.1273H28.817V33.4087H26.0984V36.1273ZM26.0984 41.4372V44.1558H28.817V41.4372H26.0984ZM6.39283 41.4372H9.1114V12.1344H6.39283H3.67425V41.4372H6.39283ZM6.39283 12.1344V14.853H26.0984V12.1344V9.41584H6.39283V12.1344ZM26.0984 12.1344H23.3799V17.4443H26.0984H28.817V12.1344H26.0984ZM26.0984 17.4443V14.7257H12.4894V17.4443V20.1629H26.0984V17.4443ZM12.4894 17.4443H9.7708V24.0915H12.4894H15.208V17.4443H12.4894ZM12.4894 24.0915V26.8101H25.3118V24.0915V21.373H12.4894V24.0915ZM25.3118 24.0915H22.5932V29.4014H25.3118H28.0304V24.0915H25.3118ZM25.3118 29.4014V26.6828H12.4894V29.4014V32.12H25.3118V29.4014ZM12.4894 29.4014H9.7708V36.1273H12.4894H15.208V29.4014H12.4894ZM12.4894 36.1273V38.8459H26.0984V36.1273V33.4087H12.4894V36.1273ZM26.0984 36.1273H23.3799V41.4372H26.0984H28.817V36.1273H26.0984ZM26.0984 41.4372V38.7186H6.39283V41.4372V44.1558H26.0984V41.4372ZM37.3817 40.9259L36.3157 43.4268L36.3403 43.4372L36.365 43.4472L37.3817 40.9259ZM33.2124 38.0546L31.2278 39.9125L31.2382 39.9237L31.2488 39.9347L33.2124 38.0546ZM30.6165 33.6887L29.5033 31.2085L27.2386 32.2249L28.0456 34.5724L30.6165 33.6887ZM35.6117 31.4467L38.0824 30.3126L36.9579 27.8627L34.4985 28.9665L35.6117 31.4467ZM38.6403 35.2226L37.0602 37.4348L37.0707 37.4424L37.0813 37.4498L38.6403 35.2226ZM45.1302 36.206L46.2142 38.6991L46.2142 38.6991L45.1302 36.206ZM46.5462 35.144L48.7057 36.7954L48.7283 36.7658L48.7501 36.7357L46.5462 35.144ZM46.4282 31.7614L44.3487 33.5125L44.3721 33.5403L44.3963 33.5675L46.4282 31.7614ZM44.4615 30.5814L43.6125 33.164L43.6247 33.168L44.4615 30.5814ZM38.719 28.6934L39.5681 26.1108L39.5612 26.1086L38.719 28.6934ZM33.4484 25.4682L31.36 27.2086L31.368 27.2182L31.3761 27.2277L33.4484 25.4682ZM32.9371 15.8317L30.6681 14.3342L30.6576 14.3501L30.6473 14.3662L32.9371 15.8317ZM36.5164 12.7637L35.3508 10.3077L35.3426 10.3116L35.3345 10.3155L36.5164 12.7637ZM46.7035 12.5671L47.7208 10.046L47.7208 10.046L46.7035 12.5671ZM50.5581 15.1237L48.6127 17.0227L48.6242 17.0344L48.6358 17.046L50.5581 15.1237ZM53.036 19.0963L54.1566 21.5732L56.4362 20.5419L55.5972 18.1847L53.036 19.0963ZM48.0801 21.3382L45.5594 22.3563L46.62 24.9826L49.2006 23.8152L48.0801 21.3382ZM45.6022 18.1523L44.022 20.3645L44.0397 20.3771L44.0575 20.3894L45.6022 18.1523ZM39.663 17.3657L40.7086 19.8751L40.7086 19.8751L39.663 17.3657ZM38.2077 18.5063L40.4116 20.098L40.4318 20.07L40.4513 20.0414L38.2077 18.5063ZM38.365 21.9676L36.2936 23.7282L36.316 23.7546L36.339 23.7803L38.365 21.9676ZM40.371 23.1475L39.5341 25.7341L39.5385 25.7355L40.371 23.1475ZM45.9955 24.9568L46.8293 22.3693L46.828 22.3689L45.9955 24.9568ZM51.2661 28.1428L49.1908 29.8988L49.2005 29.9103L49.2104 29.9218L51.2661 28.1428ZM51.6987 37.7006L53.9468 39.2293L53.9538 39.219L53.9607 39.2086L51.6987 37.7006ZM48.0015 40.8079L49.167 43.2639L49.1758 43.2598L49.1845 43.2555L48.0015 40.8079ZM42.5736 41.9092V39.1906C41.0698 39.1906 39.6859 38.9237 38.3983 38.4046L37.3817 40.9259L36.365 43.4472C38.329 44.2391 40.4063 44.6278 42.5736 44.6278V41.9092ZM37.3817 40.9259L38.4476 38.425C37.1796 37.8845 36.0969 37.1363 35.1761 36.1745L33.2124 38.0546L31.2488 39.9347C32.6879 41.4377 34.3847 42.6037 36.3157 43.4268L37.3817 40.9259ZM33.2124 38.0546L35.197 36.1967C34.3185 35.2583 33.6462 34.1396 33.1874 32.8049L30.6165 33.6887L28.0456 34.5724C28.7405 36.5941 29.7988 38.3861 31.2278 39.9125L33.2124 38.0546ZM30.6165 33.6887L31.7296 36.1689L36.7249 33.9269L35.6117 31.4467L34.4985 28.9665L29.5033 31.2085L30.6165 33.6887ZM35.6117 31.4467L33.141 32.5808C34.0498 34.5607 35.3467 36.2109 37.0602 37.4348L38.6403 35.2226L40.2205 33.0105C39.3642 32.3989 38.642 31.5318 38.0824 30.3126L35.6117 31.4467ZM38.6403 35.2226L37.0813 37.4498C38.8409 38.6815 40.8256 39.3179 42.9669 39.3179V36.5993V33.8807C41.9616 33.8807 41.0619 33.5993 40.1993 32.9955L38.6403 35.2226ZM42.9669 36.5993V39.3179C44.08 39.3179 45.1886 39.145 46.2142 38.6991L45.1302 36.206L44.0462 33.7128C43.8656 33.7914 43.532 33.8807 42.9669 33.8807V36.5993ZM45.1302 36.206L46.2142 38.6991C47.1682 38.2843 48.0389 37.6673 48.7057 36.7954L46.5462 35.144L44.3866 33.4926C44.3717 33.5122 44.2983 33.6032 44.0462 33.7128L45.1302 36.206ZM46.5462 35.144L48.7501 36.7357C49.453 35.7623 49.7761 34.644 49.7761 33.492H47.0575H44.3389C44.3389 33.5265 44.3366 33.5487 44.3349 33.5606C44.3332 33.5723 44.3318 33.5758 44.3326 33.5732C44.3335 33.5704 44.3354 33.5653 44.3383 33.5595C44.3412 33.5536 44.3432 33.551 44.3423 33.5523L46.5462 35.144ZM47.0575 33.492H49.7761C49.7761 32.2019 49.3587 30.9662 48.4601 29.9553L46.4282 31.7614L44.3963 33.5675C44.3926 33.5634 44.3833 33.5521 44.3723 33.5337C44.3613 33.5153 44.352 33.4956 44.3453 33.4771C44.3421 33.4683 44.3399 33.4609 44.3385 33.4555C44.337 33.4501 44.3366 33.4472 44.3366 33.4473C44.3366 33.4474 44.3372 33.4508 44.3377 33.4581C44.3383 33.4653 44.3389 33.4765 44.3389 33.492H47.0575ZM46.4282 31.7614L48.5076 30.0102C47.6465 28.9876 46.473 28.3748 45.2984 27.9948L44.4615 30.5814L43.6247 33.168C44.2332 33.3648 44.3707 33.5387 44.3487 33.5125L46.4282 31.7614ZM44.4615 30.5814L45.3106 27.9988L39.5681 26.1109L38.719 28.6934L37.8699 31.276L43.6125 33.164L44.4615 30.5814ZM38.719 28.6934L39.5612 26.1086C37.5454 25.4518 36.2807 24.6037 35.5208 23.7086L33.4484 25.4682L31.3761 27.2277C32.9761 29.1122 35.2251 30.4142 37.8767 31.2783L38.719 28.6934ZM33.4484 25.4682L35.5369 23.7278C34.7925 22.8345 34.397 21.7709 34.397 20.3943H31.6785H28.9599C28.9599 22.9509 29.7444 25.2698 31.36 27.2086L33.4484 25.4682ZM31.6785 20.3943H34.397C34.397 19.123 34.6985 18.1228 35.2269 17.2971L32.9371 15.8317L30.6473 14.3662C29.4975 16.1628 28.9599 18.2043 28.9599 20.3943H31.6785ZM32.9371 15.8317L35.206 17.3292C35.7811 16.4579 36.5845 15.7496 37.6983 15.212L36.5164 12.7637L35.3345 10.3155C33.4065 11.2463 31.8237 12.5833 30.6681 14.3342L32.9371 15.8317ZM36.5164 12.7637L37.6819 15.2198C38.8097 14.6846 40.1709 14.381 41.8263 14.381V11.6624V8.94385C39.4959 8.94385 37.3172 9.37452 35.3508 10.3077L36.5164 12.7637ZM41.8263 11.6624V14.381C43.266 14.381 44.5429 14.6268 45.6862 15.0882L46.7035 12.5671L47.7208 10.046C45.8748 9.30115 43.9002 8.94385 41.8263 8.94385V11.6624ZM46.7035 12.5671L45.6862 15.0882C46.8486 15.5572 47.813 16.2035 48.6127 17.0227L50.5581 15.1237L52.5034 13.2247C51.153 11.8413 49.5477 10.7832 47.7208 10.046L46.7035 12.5671ZM50.5581 15.1237L48.6358 17.046C49.4363 17.8465 50.052 18.8198 50.4749 20.0079L53.036 19.0963L55.5972 18.1847C54.9188 16.2786 53.8825 14.6035 52.4804 13.2014L50.5581 15.1237ZM53.036 19.0963L51.9155 16.6194L46.9596 18.8613L48.0801 21.3382L49.2006 23.8152L54.1566 21.5732L53.036 19.0963ZM48.0801 21.3382L50.6009 20.3202C49.8716 18.5143 48.7287 17.0074 47.1469 15.9152L45.6022 18.1523L44.0575 20.3894C44.6783 20.8181 45.1874 21.4351 45.5594 22.3563L48.0801 21.3382ZM45.6022 18.1523L47.1823 15.9401C45.5978 14.8083 43.781 14.2538 41.8263 14.2538V16.9723V19.6909C42.7035 19.6909 43.404 19.923 44.022 20.3645L45.6022 18.1523ZM41.8263 16.9723V14.2538C40.7221 14.2538 39.6352 14.4321 38.6174 14.8562L39.663 17.3657L40.7086 19.8751C40.9493 19.7748 41.3046 19.6909 41.8263 19.6909V16.9723ZM39.663 17.3657L38.6174 14.8562C37.5676 15.2936 36.6389 15.9848 35.964 16.9712L38.2077 18.5063L40.4513 20.0414C40.4582 20.0314 40.4997 19.9621 40.7086 19.8751L39.663 17.3657ZM38.2077 18.5063L36.0038 16.9146C35.3008 17.8879 34.9778 19.0063 34.9778 20.1583H37.6963H40.4149C40.4149 20.1238 40.4172 20.1016 40.4189 20.0897C40.4206 20.078 40.422 20.0745 40.4212 20.0771C40.4203 20.0799 40.4184 20.085 40.4155 20.0908C40.4126 20.0966 40.4107 20.0992 40.4116 20.098L38.2077 18.5063ZM37.6963 20.1583H34.9778C34.9778 21.4919 35.4344 22.7175 36.2936 23.7282L38.365 21.9676L40.4364 20.2069C40.4194 20.1869 40.4123 20.1754 40.4108 20.1728C40.4094 20.1705 40.4111 20.1731 40.4135 20.1795C40.4159 20.1859 40.4167 20.1903 40.4167 20.1902C40.4166 20.1898 40.4149 20.18 40.4149 20.1583H37.6963ZM38.365 21.9676L36.339 23.7803C37.2093 24.753 38.3595 25.3541 39.5341 25.7341L40.371 23.1475L41.2078 20.561C40.5993 20.3641 40.4122 20.1786 40.391 20.1548L38.365 21.9676ZM40.371 23.1475L39.5385 25.7355L45.163 27.5448L45.9955 24.9568L46.828 22.3689L41.2034 20.5596L40.371 23.1475ZM45.9955 24.9568L45.1617 27.5444C47.2183 28.2071 48.4689 29.0457 49.1908 29.8988L51.2661 28.1428L53.3414 26.3867C51.7558 24.5128 49.4926 23.2275 46.8293 22.3693L45.9955 24.9568ZM51.2661 28.1428L49.2104 29.9218C49.9228 30.745 50.3175 31.7609 50.3175 33.138H53.036H55.7546C55.7546 30.5818 54.9693 28.2676 53.3218 26.3638L51.2661 28.1428ZM53.036 33.138H50.3175C50.3175 34.3399 50.0122 35.3295 49.4367 36.1926L51.6987 37.7006L53.9607 39.2086C55.1684 37.3971 55.7546 35.345 55.7546 33.138H53.036ZM51.6987 37.7006L49.4507 36.1719C48.8542 37.0491 48.0073 37.7856 46.8184 38.3602L48.0015 40.8079L49.1845 43.2555C51.1423 42.3093 52.7602 40.9742 53.9468 39.2293L51.6987 37.7006ZM48.0015 40.8079L46.8359 38.3518C45.7214 38.8808 44.3251 39.1906 42.5736 39.1906V41.9092V44.6278C44.9651 44.6278 47.1874 44.2034 49.167 43.2639L48.0015 40.8079ZM59.7407 41.4372H57.0221V44.1558H59.7407V41.4372ZM59.7407 12.1344V9.41584H57.0221V12.1344H59.7407ZM79.8003 12.1344H82.5189V9.41584H79.8003V12.1344ZM79.8003 17.4443V20.1629H82.5189V17.4443H79.8003ZM65.8373 17.4443V14.7257H63.1187V17.4443H65.8373ZM65.8373 24.8782H63.1187V27.5968H65.8373V24.8782ZM77.8337 24.8782H80.5523V22.1596H77.8337V24.8782ZM77.8337 30.1881V32.9067H80.5523V30.1881H77.8337ZM65.8373 30.1881V27.4695H63.1187V30.1881H65.8373ZM65.8373 41.4372V44.1558H68.5558V41.4372H65.8373ZM59.7407 41.4372H62.4593V12.1344H59.7407H57.0221V41.4372H59.7407ZM59.7407 12.1344V14.853H79.8003V12.1344V9.41584H59.7407V12.1344ZM79.8003 12.1344H77.0818V17.4443H79.8003H82.5189V12.1344H79.8003ZM79.8003 17.4443V14.7257H65.8373V17.4443V20.1629H79.8003V17.4443ZM65.8373 17.4443H63.1187V24.8782H65.8373H68.5558V17.4443H65.8373ZM65.8373 24.8782V27.5968H77.8337V24.8782V22.1596H65.8373V24.8782ZM77.8337 24.8782H75.1151V30.1881H77.8337H80.5523V24.8782H77.8337ZM77.8337 30.1881V27.4695H65.8373V30.1881V32.9067H77.8337V30.1881ZM65.8373 30.1881H63.1187V41.4372H65.8373H68.5558V30.1881H65.8373ZM65.8373 41.4372V38.7186H59.7407V41.4372V44.1558H65.8373V41.4372ZM85.1855 41.4372H82.4669V44.1558H85.1855V41.4372ZM85.1855 12.1344V9.41584H82.4669V12.1344H85.1855ZM101.784 13.1964L100.653 15.6684L100.66 15.672L100.668 15.6755L101.784 13.1964ZM105.481 16.343L103.193 17.8109L103.193 17.8109L105.481 16.343ZM105.442 26.5695L103.173 25.0714L103.163 25.0864L103.154 25.1016L105.442 26.5695ZM101.745 29.7554L102.876 32.2274L102.885 32.2232L102.894 32.2189L101.745 29.7554ZM91.2821 30.8174V28.0988H88.5635V30.8174H91.2821ZM91.2821 41.4372V44.1558H94.0006V41.4372H91.2821ZM91.2821 25.5075H88.5635V28.2261H91.2821V25.5075ZM98.7159 24.9962L100.011 27.3866L100.011 27.3866L98.7159 24.9962ZM100.171 23.5802L97.849 22.1667L97.8262 22.2042L97.8045 22.2425L100.171 23.5802ZM100.171 19.3716L97.8045 20.7093L97.8262 20.7476L97.849 20.7851L100.171 19.3716ZM98.7159 17.9556L97.4211 20.3461L97.4211 20.3461L98.7159 17.9556ZM91.2821 17.4443V14.7257H88.5635V17.4443H91.2821ZM85.1855 41.4372H87.9041V12.1344H85.1855H82.4669V41.4372H85.1855ZM85.1855 12.1344V14.853H96.4346V12.1344V9.41584H85.1855V12.1344ZM96.4346 12.1344V14.853C98.1353 14.853 99.5206 15.1504 100.653 15.6684L101.784 13.1964L102.915 10.7244C100.953 9.82643 98.7721 9.41584 96.4346 9.41584V12.1344ZM101.784 13.1964L100.668 15.6755C101.784 16.1775 102.599 16.8853 103.193 17.8109L105.481 16.343L107.769 14.8751C106.58 13.0212 104.931 11.6313 102.899 10.7173L101.784 13.1964ZM105.481 16.343L103.193 17.8109C103.743 18.6686 104.1 19.8464 104.1 21.4956H106.818H109.537C109.537 19.0542 109.002 16.7969 107.769 14.8751L105.481 16.343ZM106.818 21.4956H104.1C104.1 23.062 103.744 24.2072 103.173 25.0714L105.442 26.5695L107.71 28.0676C108.975 26.1523 109.537 23.9148 109.537 21.4956H106.818ZM105.442 26.5695L103.154 25.1016C102.554 26.0356 101.727 26.7634 100.595 27.2919L101.745 29.7554L102.894 32.2189C104.908 31.279 106.546 29.8828 107.73 28.0374L105.442 26.5695ZM101.745 29.7554L100.613 27.2834C99.4769 27.8034 98.1034 28.0988 96.4346 28.0988V30.8174V33.536C98.7516 33.536 100.918 33.1234 102.876 32.2274L101.745 29.7554ZM96.4346 30.8174V28.0988H91.2821V30.8174V33.536H96.4346V30.8174ZM91.2821 30.8174H88.5635V41.4372H91.2821H94.0006V30.8174H91.2821ZM91.2821 41.4372V38.7186H85.1855V41.4372V44.1558H91.2821V41.4372ZM91.2821 25.5075V28.2261H96.474V25.5075V22.7889H91.2821V25.5075ZM96.474 25.5075V28.2261C97.6976 28.2261 98.9087 27.9835 100.011 27.3866L98.7159 24.9962L97.4211 22.6058C97.2645 22.6906 96.981 22.7889 96.474 22.7889V25.5075ZM98.7159 24.9962L100.011 27.3866C101.073 26.8109 101.937 25.9809 102.538 24.9179L100.171 23.5802L97.8045 22.2425C97.7236 22.3857 97.617 22.4996 97.4211 22.6058L98.7159 24.9962ZM100.171 23.5802L102.493 24.9937C103.149 23.9173 103.44 22.7223 103.44 21.4956H100.722H98.0033C98.0033 21.8422 97.928 22.0369 97.849 22.1667L100.171 23.5802ZM100.722 21.4956H103.44C103.44 20.2609 103.157 19.0483 102.493 17.9581L100.171 19.3716L97.849 20.7851C97.9196 20.9011 98.0033 21.1045 98.0033 21.4956H100.722ZM100.171 19.3716L102.538 18.0339C101.937 16.9709 101.073 16.1409 100.011 15.5652L98.7159 17.9556L97.4211 20.3461C97.617 20.4522 97.7236 20.5661 97.8045 20.7093L100.171 19.3716ZM98.7159 17.9556L100.011 15.5652C98.9087 14.9683 97.6976 14.7257 96.474 14.7257V17.4443V20.1629C96.981 20.1629 97.2645 20.2612 97.4211 20.3461L98.7159 17.9556ZM96.474 17.4443V14.7257H91.2821V17.4443V20.1629H96.474V17.4443ZM91.2821 17.4443H88.5635V25.5075H91.2821H94.0006V17.4443H91.2821Z" fill="#FEC84B" mask="url(#path-1-outside-1_1431_58857)"/>
</g>
<mask id="path-3-outside-2_1431_58857" maskUnits="userSpaceOnUse" x="5.79688" y="10.4372" width="103" height="33" fill="black">
<rect fill="white" x="5.79688" y="10.4372" width="103" height="33"/>
<path d="M6.72492 41.4372V12.1344H26.4305V17.4443H12.8215V24.0915H25.6439V29.4014H12.8215V36.1273H26.4305V41.4372H6.72492ZM42.9057 41.9092C41.0701 41.9092 39.3395 41.5814 37.7138 40.9259C36.1142 40.2441 34.7245 39.287 33.5445 38.0546C32.3908 36.8222 31.5254 35.3669 30.9486 33.6887L35.9438 31.4467C36.678 33.0462 37.6875 34.3049 38.9724 35.2226C40.2835 36.1404 41.7257 36.5993 43.299 36.5993C44.1381 36.5993 44.8592 36.4682 45.4623 36.206C46.0654 35.9437 46.5374 35.5898 46.8783 35.144C47.2191 34.672 47.3896 34.1213 47.3896 33.492C47.3896 32.8102 47.1798 32.2334 46.7603 31.7614C46.3407 31.2632 45.6852 30.8698 44.7936 30.5814L39.0511 28.6934C36.7173 27.933 34.9605 26.8579 33.7805 25.4682C32.6005 24.0522 32.0105 22.3609 32.0105 20.3943C32.0105 18.6636 32.4301 17.1428 33.2692 15.8317C34.1345 14.5206 35.3276 13.498 36.8485 12.7637C38.3955 12.0295 40.1655 11.6624 42.1584 11.6624C43.9152 11.6624 45.541 11.964 47.0356 12.5671C48.5302 13.1702 49.8151 14.0224 50.8902 15.1237C51.9915 16.225 52.8175 17.5492 53.3681 19.0963L48.4122 21.3382C47.8616 19.9747 47.0356 18.9127 45.9343 18.1523C44.833 17.3657 43.5743 16.9723 42.1584 16.9723C41.3455 16.9723 40.6244 17.1034 39.9951 17.3657C39.3657 17.6279 38.8806 18.0081 38.5398 18.5063C38.1989 18.9783 38.0284 19.5289 38.0284 20.1583C38.0284 20.84 38.2513 21.4431 38.6971 21.9676C39.1429 22.4658 39.8115 22.8591 40.703 23.1475L46.3276 24.9568C48.6876 25.7173 50.4444 26.7793 51.5982 28.1428C52.7781 29.5063 53.3681 31.1714 53.3681 33.138C53.3681 34.8424 52.9224 36.3633 52.0308 37.7006C51.1393 39.0117 49.9069 40.0474 48.3336 40.8079C46.7865 41.5421 44.9772 41.9092 42.9057 41.9092ZM60.0728 41.4372V12.1344H80.1324V17.4443H66.1694V24.8782H78.1658V30.1881H66.1694V41.4372H60.0728ZM85.5176 41.4372V12.1344H96.7667C98.7858 12.1344 100.569 12.4884 102.116 13.1964C103.689 13.9044 104.922 14.9533 105.813 16.343C106.705 17.7328 107.151 19.4503 107.151 21.4956C107.151 23.4884 106.692 25.1797 105.774 26.5695C104.882 27.9592 103.65 29.0212 102.077 29.7554C100.53 30.4634 98.7596 30.8174 96.7667 30.8174H91.6142V41.4372H85.5176ZM91.6142 25.5075H96.8061C97.6714 25.5075 98.4187 25.3371 99.048 24.9962C99.6773 24.6553 100.162 24.1833 100.503 23.5802C100.87 22.9771 101.054 22.2822 101.054 21.4956C101.054 20.6827 100.87 19.9747 100.503 19.3716C100.162 18.7685 99.6773 18.2965 99.048 17.9556C98.4187 17.6148 97.6714 17.4443 96.8061 17.4443H91.6142V25.5075Z"/>
</mask>
<path d="M6.72492 41.4372V12.1344H26.4305V17.4443H12.8215V24.0915H25.6439V29.4014H12.8215V36.1273H26.4305V41.4372H6.72492ZM42.9057 41.9092C41.0701 41.9092 39.3395 41.5814 37.7138 40.9259C36.1142 40.2441 34.7245 39.287 33.5445 38.0546C32.3908 36.8222 31.5254 35.3669 30.9486 33.6887L35.9438 31.4467C36.678 33.0462 37.6875 34.3049 38.9724 35.2226C40.2835 36.1404 41.7257 36.5993 43.299 36.5993C44.1381 36.5993 44.8592 36.4682 45.4623 36.206C46.0654 35.9437 46.5374 35.5898 46.8783 35.144C47.2191 34.672 47.3896 34.1213 47.3896 33.492C47.3896 32.8102 47.1798 32.2334 46.7603 31.7614C46.3407 31.2632 45.6852 30.8698 44.7936 30.5814L39.0511 28.6934C36.7173 27.933 34.9605 26.8579 33.7805 25.4682C32.6005 24.0522 32.0105 22.3609 32.0105 20.3943C32.0105 18.6636 32.4301 17.1428 33.2692 15.8317C34.1345 14.5206 35.3276 13.498 36.8485 12.7637C38.3955 12.0295 40.1655 11.6624 42.1584 11.6624C43.9152 11.6624 45.541 11.964 47.0356 12.5671C48.5302 13.1702 49.8151 14.0224 50.8902 15.1237C51.9915 16.225 52.8175 17.5492 53.3681 19.0963L48.4122 21.3382C47.8616 19.9747 47.0356 18.9127 45.9343 18.1523C44.833 17.3657 43.5743 16.9723 42.1584 16.9723C41.3455 16.9723 40.6244 17.1034 39.9951 17.3657C39.3657 17.6279 38.8806 18.0081 38.5398 18.5063C38.1989 18.9783 38.0284 19.5289 38.0284 20.1583C38.0284 20.84 38.2513 21.4431 38.6971 21.9676C39.1429 22.4658 39.8115 22.8591 40.703 23.1475L46.3276 24.9568C48.6876 25.7173 50.4444 26.7793 51.5982 28.1428C52.7781 29.5063 53.3681 31.1714 53.3681 33.138C53.3681 34.8424 52.9224 36.3633 52.0308 37.7006C51.1393 39.0117 49.9069 40.0474 48.3336 40.8079C46.7865 41.5421 44.9772 41.9092 42.9057 41.9092ZM60.0728 41.4372V12.1344H80.1324V17.4443H66.1694V24.8782H78.1658V30.1881H66.1694V41.4372H60.0728ZM85.5176 41.4372V12.1344H96.7667C98.7858 12.1344 100.569 12.4884 102.116 13.1964C103.689 13.9044 104.922 14.9533 105.813 16.343C106.705 17.7328 107.151 19.4503 107.151 21.4956C107.151 23.4884 106.692 25.1797 105.774 26.5695C104.882 27.9592 103.65 29.0212 102.077 29.7554C100.53 30.4634 98.7596 30.8174 96.7667 30.8174H91.6142V41.4372H85.5176ZM91.6142 25.5075H96.8061C97.6714 25.5075 98.4187 25.3371 99.048 24.9962C99.6773 24.6553 100.162 24.1833 100.503 23.5802C100.87 22.9771 101.054 22.2822 101.054 21.4956C101.054 20.6827 100.87 19.9747 100.503 19.3716C100.162 18.7685 99.6773 18.2965 99.048 17.9556C98.4187 17.6148 97.6714 17.4443 96.8061 17.4443H91.6142V25.5075Z" fill="#F5FBFF"/>
<path d="M6.72492 41.4372H5.81873V42.3434H6.72492V41.4372ZM6.72492 12.1344V11.2282H5.81873V12.1344H6.72492ZM26.4305 12.1344H27.3367V11.2282H26.4305V12.1344ZM26.4305 17.4443V18.3505H27.3367V17.4443H26.4305ZM12.8215 17.4443V16.5381H11.9153V17.4443H12.8215ZM12.8215 24.0915H11.9153V24.9977H12.8215V24.0915ZM25.6439 24.0915H26.5501V23.1853H25.6439V24.0915ZM25.6439 29.4014V30.3076H26.5501V29.4014H25.6439ZM12.8215 29.4014V28.4952H11.9153V29.4014H12.8215ZM12.8215 36.1273H11.9153V37.0335H12.8215V36.1273ZM26.4305 36.1273H27.3367V35.2211H26.4305V36.1273ZM26.4305 41.4372V42.3434H27.3367V41.4372H26.4305ZM6.72492 41.4372H7.63111V12.1344H6.72492H5.81873V41.4372H6.72492ZM6.72492 12.1344V13.0406H26.4305V12.1344V11.2282H6.72492V12.1344ZM26.4305 12.1344H25.5243V17.4443H26.4305H27.3367V12.1344H26.4305ZM26.4305 17.4443V16.5381H12.8215V17.4443V18.3505H26.4305V17.4443ZM12.8215 17.4443H11.9153V24.0915H12.8215H13.7277V17.4443H12.8215ZM12.8215 24.0915V24.9977H25.6439V24.0915V23.1853H12.8215V24.0915ZM25.6439 24.0915H24.7377V29.4014H25.6439H26.5501V24.0915H25.6439ZM25.6439 29.4014V28.4952H12.8215V29.4014V30.3076H25.6439V29.4014ZM12.8215 29.4014H11.9153V36.1273H12.8215H13.7277V29.4014H12.8215ZM12.8215 36.1273V37.0335H26.4305V36.1273V35.2211H12.8215V36.1273ZM26.4305 36.1273H25.5243V41.4372H26.4305H27.3367V36.1273H26.4305ZM26.4305 41.4372V40.531H6.72492V41.4372V42.3434H26.4305V41.4372ZM37.7138 40.9259L37.3585 41.7595L37.3666 41.763L37.3749 41.7663L37.7138 40.9259ZM33.5445 38.0546L32.8829 38.6739L32.89 38.6813L33.5445 38.0546ZM30.9486 33.6887L30.5775 32.8619L29.8226 33.2008L30.0916 33.9833L30.9486 33.6887ZM35.9438 31.4467L36.7674 31.0687L36.3925 30.252L35.5727 30.62L35.9438 31.4467ZM38.9724 35.2226L38.4457 35.9601L38.4527 35.965L38.9724 35.2226ZM45.4623 36.206L45.8236 37.037L45.8236 37.037L45.4623 36.206ZM46.8783 35.144L47.5981 35.6944L47.6056 35.6846L47.6129 35.6745L46.8783 35.144ZM46.7603 31.7614L46.0671 32.3451L46.0749 32.3544L46.083 32.3634L46.7603 31.7614ZM44.7936 30.5814L44.5106 31.4423L44.5147 31.4436L44.7936 30.5814ZM39.0511 28.6934L39.3341 27.8326L39.3318 27.8318L39.0511 28.6934ZM33.7805 25.4682L33.0843 26.0483L33.0897 26.0547L33.7805 25.4682ZM33.2692 15.8317L32.5128 15.3325L32.5059 15.3432L33.2692 15.8317ZM36.8485 12.7637L36.4599 11.945L36.4545 11.9477L36.8485 12.7637ZM47.0356 12.5671L47.3747 11.7267L47.3747 11.7267L47.0356 12.5671ZM50.8902 15.1237L50.2417 15.7568L50.2494 15.7645L50.8902 15.1237ZM53.3681 19.0963L53.7416 19.9219L54.5015 19.5782L54.2219 18.7924L53.3681 19.0963ZM48.4122 21.3382L47.572 21.6776L47.9255 22.553L48.7857 22.1639L48.4122 21.3382ZM45.9343 18.1523L45.4076 18.8897L45.4134 18.8939L45.4194 18.898L45.9343 18.1523ZM39.9951 17.3657L40.3436 18.2021L40.3436 18.2021L39.9951 17.3657ZM38.5398 18.5063L39.2744 19.0369L39.2811 19.0275L39.2876 19.018L38.5398 18.5063ZM38.6971 21.9676L38.0066 22.5545L38.0141 22.5632L38.0218 22.5718L38.6971 21.9676ZM40.703 23.1475L40.4241 24.0097L40.4255 24.0102L40.703 23.1475ZM46.3276 24.9568L46.6055 24.0943L46.6051 24.0942L46.3276 24.9568ZM51.5982 28.1428L50.9064 28.7282L50.9129 28.7358L51.5982 28.1428ZM52.0308 37.7006L52.7802 38.2102L52.7848 38.2033L52.0308 37.7006ZM48.3336 40.8079L48.7221 41.6266L48.7279 41.6238L48.3336 40.8079ZM42.9057 41.9092V41.003C41.1807 41.003 39.5657 40.6955 38.0527 40.0854L37.7138 40.9259L37.3749 41.7663C39.1134 42.4673 40.9596 42.8154 42.9057 42.8154V41.9092ZM37.7138 40.9259L38.0691 40.0922C36.5801 39.4576 35.2927 38.5701 34.1991 37.4279L33.5445 38.0546L32.89 38.6813C34.1563 40.0039 35.6484 41.0306 37.3585 41.7595L37.7138 40.9259ZM33.5445 38.0546L34.2061 37.4353C33.1441 36.3009 32.3431 34.9578 31.8055 33.3941L30.9486 33.6887L30.0916 33.9833C30.7078 35.7759 31.6375 37.3435 32.883 38.6739L33.5445 38.0546ZM30.9486 33.6887L31.3196 34.5154L36.3149 32.2735L35.9438 31.4467L35.5727 30.62L30.5775 32.8619L30.9486 33.6887ZM35.9438 31.4467L35.1202 31.8248C35.9126 33.5511 37.018 34.9402 38.4457 35.96L38.9724 35.2226L39.4991 34.4852C38.3571 33.6695 37.4434 32.5414 36.7674 31.0687L35.9438 31.4467ZM38.9724 35.2226L38.4527 35.965C39.9133 36.9874 41.5364 37.5055 43.299 37.5055V36.5993V35.6931C41.915 35.6931 40.6537 35.2934 39.4921 34.4803L38.9724 35.2226ZM43.299 36.5993V37.5055C44.2294 37.5055 45.0797 37.3604 45.8236 37.037L45.4623 36.206L45.101 35.3749C44.6387 35.5759 44.0468 35.6931 43.299 35.6931V36.5993ZM45.4623 36.206L45.8236 37.037C46.5437 36.7239 47.1486 36.2823 47.5981 35.6944L46.8783 35.144L46.1584 34.5935C45.9262 34.8972 45.5871 35.1636 45.101 35.3749L45.4623 36.206ZM46.8783 35.144L47.6129 35.6745C48.0745 35.0354 48.2958 34.2956 48.2958 33.492H47.3896H46.4834C46.4834 33.9471 46.3638 34.3085 46.1436 34.6134L46.8783 35.144ZM47.3896 33.492H48.2958C48.2958 32.6075 48.0168 31.811 47.4376 31.1593L46.7603 31.7614L46.083 32.3634C46.3428 32.6557 46.4834 33.013 46.4834 33.492H47.3896ZM46.7603 31.7614L47.4534 31.1777C46.8867 30.5047 46.0585 30.0382 45.0726 29.7192L44.7936 30.5814L44.5147 31.4436C45.3119 31.7015 45.7948 32.0217 46.0671 32.3451L46.7603 31.7614ZM44.7936 30.5814L45.0767 29.7205L39.3341 27.8326L39.0511 28.6934L38.7681 29.5543L44.5106 31.4423L44.7936 30.5814ZM39.0511 28.6934L39.3318 27.8318C37.1041 27.1059 35.5113 26.1065 34.4713 24.8817L33.7805 25.4682L33.0897 26.0547C34.4097 27.6093 36.3306 28.7601 38.7703 29.555L39.0511 28.6934ZM33.7805 25.4682L34.4767 24.888C33.4419 23.6463 32.9167 22.1642 32.9167 20.3943H32.0105H31.1044C31.1044 22.5576 31.7592 24.4581 33.0844 26.0483L33.7805 25.4682ZM32.0105 20.3943H32.9167C32.9167 18.8168 33.2969 17.4694 34.0324 16.3202L33.2692 15.8317L32.5059 15.3432C31.5633 16.8161 31.1044 18.5105 31.1044 20.3943H32.0105ZM33.2692 15.8317L34.0255 16.3309C34.7941 15.1664 35.8573 14.2485 37.2424 13.5798L36.8485 12.7637L36.4545 11.9477C34.7979 12.7474 33.4749 13.8748 32.5129 15.3325L33.2692 15.8317ZM36.8485 12.7637L37.237 13.5824C38.6443 12.9145 40.278 12.5686 42.1584 12.5686V11.6624V10.7562C40.053 10.7562 38.1468 11.1445 36.4599 11.9451L36.8485 12.7637ZM42.1584 11.6624V12.5686C43.8095 12.5686 45.319 12.8516 46.6965 13.4074L47.0356 12.5671L47.3747 11.7267C45.7629 11.0764 44.0209 10.7562 42.1584 10.7562V11.6624ZM47.0356 12.5671L46.6965 13.4074C48.0804 13.9658 49.2584 14.7494 50.2417 15.7567L50.8902 15.1237L51.5386 14.4907C50.3718 13.2954 48.9801 12.3745 47.3747 11.7267L47.0356 12.5671ZM50.8902 15.1237L50.2494 15.7645C51.2505 16.7655 52.0063 17.9727 52.5144 19.4002L53.3681 19.0963L54.2219 18.7924C53.6286 17.1257 52.7325 15.6845 51.531 14.4829L50.8902 15.1237ZM53.3681 19.0963L52.9946 18.2706L48.0387 20.5126L48.4122 21.3382L48.7857 22.1639L53.7416 19.9219L53.3681 19.0963ZM48.4122 21.3382L49.2525 20.9989C48.6423 19.4879 47.7106 18.2776 46.4492 17.4066L45.9343 18.1523L45.4194 18.898C46.3605 19.5478 47.0809 20.4615 47.572 21.6776L48.4122 21.3382ZM45.9343 18.1523L46.461 17.4149C45.1986 16.5132 43.7539 16.0661 42.1584 16.0661V16.9723V17.8785C43.3947 17.8785 44.4673 18.2181 45.4076 18.8897L45.9343 18.1523ZM42.1584 16.9723V16.0661C41.2484 16.0661 40.4054 16.213 39.6465 16.5292L39.9951 17.3657L40.3436 18.2021C40.8434 17.9939 41.4426 17.8785 42.1584 17.8785V16.9723ZM39.9951 17.3657L39.6465 16.5292C38.8771 16.8498 38.2441 17.3336 37.7919 17.9946L38.5398 18.5063L39.2876 19.018C39.5172 18.6825 39.8544 18.406 40.3436 18.2021L39.9951 17.3657ZM38.5398 18.5063L37.8051 17.9757C37.3435 18.6148 37.1222 19.3547 37.1222 20.1583H38.0284H38.9346C38.9346 19.7032 39.0542 19.3417 39.2744 19.0369L38.5398 18.5063ZM38.0284 20.1583H37.1222C37.1222 21.0573 37.423 21.8679 38.0066 22.5545L38.6971 21.9676L39.3875 21.3807C39.0796 21.0184 38.9346 20.6228 38.9346 20.1583H38.0284ZM38.6971 21.9676L38.0218 22.5718C38.609 23.2282 39.4382 23.6908 40.4241 24.0097L40.703 23.1475L40.982 22.2854C40.1848 22.0274 39.6767 21.7034 39.3724 21.3633L38.6971 21.9676ZM40.703 23.1475L40.4255 24.0102L46.0501 25.8195L46.3276 24.9568L46.6051 24.0942L40.9805 22.2849L40.703 23.1475ZM46.3276 24.9568L46.0497 25.8194C48.3085 26.5472 49.8966 27.5347 50.9064 28.7281L51.5982 28.1428L52.2899 27.5574C50.9922 26.0238 49.0666 24.8873 46.6055 24.0943L46.3276 24.9568ZM51.5982 28.1428L50.9129 28.7358C51.9371 29.9192 52.4619 31.3679 52.4619 33.138H53.3681H54.2743C54.2743 30.9749 53.6192 29.0934 52.2834 27.5498L51.5982 28.1428ZM53.3681 33.138H52.4619C52.4619 34.6749 52.063 36.0187 51.2768 37.1979L52.0308 37.7006L52.7848 38.2033C53.7817 36.7079 54.2743 35.01 54.2743 33.138H53.3681ZM52.0308 37.7006L51.2815 37.191C50.4883 38.3575 49.3844 39.2935 47.9392 39.992L48.3336 40.8079L48.7279 41.6238C50.4294 40.8014 51.7903 39.6659 52.7802 38.2102L52.0308 37.7006ZM48.3336 40.8079L47.945 39.9892C46.5422 40.655 44.8705 41.003 42.9057 41.003V41.9092V42.8154C45.0839 42.8154 47.0308 42.4292 48.7221 41.6266L48.3336 40.8079ZM60.0728 41.4372H59.1666V42.3434H60.0728V41.4372ZM60.0728 12.1344V11.2282H59.1666V12.1344H60.0728ZM80.1324 12.1344H81.0386V11.2282H80.1324V12.1344ZM80.1324 17.4443V18.3505H81.0386V17.4443H80.1324ZM66.1694 17.4443V16.5381H65.2632V17.4443H66.1694ZM66.1694 24.8782H65.2632V25.7844H66.1694V24.8782ZM78.1658 24.8782H79.072V23.972H78.1658V24.8782ZM78.1658 30.1881V31.0943H79.072V30.1881H78.1658ZM66.1694 30.1881V29.2819H65.2632V30.1881H66.1694ZM66.1694 41.4372V42.3434H67.0755V41.4372H66.1694ZM60.0728 41.4372H60.979V12.1344H60.0728H59.1666V41.4372H60.0728ZM60.0728 12.1344V13.0406H80.1324V12.1344V11.2282H60.0728V12.1344ZM80.1324 12.1344H79.2262V17.4443H80.1324H81.0386V12.1344H80.1324ZM80.1324 17.4443V16.5381H66.1694V17.4443V18.3505H80.1324V17.4443ZM66.1694 17.4443H65.2632V24.8782H66.1694H67.0755V17.4443H66.1694ZM66.1694 24.8782V25.7844H78.1658V24.8782V23.972H66.1694V24.8782ZM78.1658 24.8782H77.2596V30.1881H78.1658H79.072V24.8782H78.1658ZM78.1658 30.1881V29.2819H66.1694V30.1881V31.0943H78.1658V30.1881ZM66.1694 30.1881H65.2632V41.4372H66.1694H67.0755V30.1881H66.1694ZM66.1694 41.4372V40.531H60.0728V41.4372V42.3434H66.1694V41.4372ZM85.5176 41.4372H84.6114V42.3434H85.5176V41.4372ZM85.5176 12.1344V11.2282H84.6114V12.1344H85.5176ZM102.116 13.1964L101.739 14.0204L101.744 14.0228L102.116 13.1964ZM105.813 16.343L105.05 16.8323L105.05 16.8323L105.813 16.343ZM105.774 26.5695L105.018 26.0701L105.011 26.0802L105.774 26.5695ZM102.077 29.7554L102.454 30.5794L102.46 30.5766L102.077 29.7554ZM91.6142 30.8174V29.9112H90.708V30.8174H91.6142ZM91.6142 41.4372V42.3434H92.5203V41.4372H91.6142ZM91.6142 25.5075H90.708V26.4137H91.6142V25.5075ZM99.048 24.9962L99.4796 25.793L99.4796 25.793L99.048 24.9962ZM100.503 23.5802L99.7293 23.109L99.7216 23.1215L99.7144 23.1343L100.503 23.5802ZM100.503 19.3716L99.7144 19.8175L99.7216 19.8303L99.7293 19.8428L100.503 19.3716ZM99.048 17.9556L98.6164 18.7525L98.6164 18.7525L99.048 17.9556ZM91.6142 17.4443V16.5381H90.708V17.4443H91.6142ZM85.5176 41.4372H86.4238V12.1344H85.5176H84.6114V41.4372H85.5176ZM85.5176 12.1344V13.0406H96.7667V12.1344V11.2282H85.5176V12.1344ZM96.7667 12.1344V13.0406C98.6796 13.0406 100.33 13.3757 101.739 14.0204L102.116 13.1964L102.493 12.3724C100.808 11.6011 98.8919 11.2282 96.7667 11.2282V12.1344ZM102.116 13.1964L101.744 14.0228C103.165 14.6621 104.258 15.5973 105.05 16.8323L105.813 16.343L106.576 15.8537C105.585 14.3092 104.214 13.1467 102.488 12.37L102.116 13.1964ZM105.813 16.343L105.05 16.8323C105.828 18.0447 106.244 19.5823 106.244 21.4956H107.151H108.057C108.057 19.3183 107.581 17.4208 106.576 15.8537L105.813 16.343ZM107.151 21.4956H106.244C106.244 23.3463 105.82 24.8556 105.018 26.0701L105.774 26.5695L106.53 27.0688C107.564 25.5039 108.057 23.6306 108.057 21.4956H107.151ZM105.774 26.5695L105.011 26.0802C104.217 27.318 103.12 28.2686 101.693 28.9342L102.077 29.7554L102.46 30.5766C104.18 29.7738 105.548 28.6004 106.537 27.0588L105.774 26.5695ZM102.077 29.7554L101.7 28.9314C100.289 29.5767 98.6515 29.9112 96.7667 29.9112V30.8174V31.7236C98.8676 31.7236 100.77 31.3501 102.454 30.5794L102.077 29.7554ZM96.7667 30.8174V29.9112H91.6142V30.8174V31.7236H96.7667V30.8174ZM91.6142 30.8174H90.708V41.4372H91.6142H92.5203V30.8174H91.6142ZM91.6142 41.4372V40.531H85.5176V41.4372V42.3434H91.6142V41.4372ZM91.6142 25.5075V26.4137H96.8061V25.5075V24.6013H91.6142V25.5075ZM96.8061 25.5075V26.4137C97.7908 26.4137 98.6927 26.2192 99.4796 25.793L99.048 24.9962L98.6164 24.1994C98.1447 24.4549 97.5519 24.6013 96.8061 24.6013V25.5075ZM99.048 24.9962L99.4796 25.793C100.253 25.3738 100.865 24.7825 101.292 24.0261L100.503 23.5802L99.7144 23.1343C99.4602 23.5841 99.1013 23.9367 98.6164 24.1994L99.048 24.9962ZM100.503 23.5802L101.277 24.0514C101.741 23.2905 101.96 22.4289 101.96 21.4956H101.054H100.148C100.148 22.1355 100 22.6637 99.7293 23.109L100.503 23.5802ZM101.054 21.4956H101.96C101.96 20.5421 101.743 19.6659 101.277 18.9004L100.503 19.3716L99.7293 19.8428C99.9975 20.2835 100.148 20.8233 100.148 21.4956H101.054ZM100.503 19.3716L101.292 18.9257C100.865 18.1693 100.253 17.578 99.4796 17.1588L99.048 17.9556L98.6164 18.7525C99.1013 19.0151 99.4602 19.3677 99.7144 19.8175L100.503 19.3716ZM99.048 17.9556L99.4796 17.1588C98.6927 16.7326 97.7908 16.5381 96.8061 16.5381V17.4443V18.3505C97.5519 18.3505 98.1447 18.4969 98.6164 18.7525L99.048 17.9556ZM96.8061 17.4443V16.5381H91.6142V17.4443V18.3505H96.8061V17.4443ZM91.6142 17.4443H90.708V25.5075H91.6142H92.5203V17.4443H91.6142Z" fill="#FDB022" mask="url(#path-3-outside-2_1431_58857)"/>
<defs>
<filter id="filter0_d_1431_58857" x="0.320919" y="4.68475" width="114.381" height="44.2021" filterUnits="userSpaceOnUse" color-interpolation-filters="sRGB">
<feFlood flood-opacity="0" result="BackgroundImageFix"/>
<feColorMatrix in="SourceAlpha" type="matrix" values="0 0 0 0 0 0 0 0 0 0 0 0 0 0 0 0 0 0 127 0" result="hardAlpha"/>
<feOffset dx="0.906192"/>
<feGaussianBlur stdDeviation="2.12955"/>
<feComposite in2="hardAlpha" operator="out"/>
<feColorMatrix type="matrix" values="0 0 0 0 0.596154 0 0 0 0 0.878846 0 0 0 0 1 0 0 0 0.6 0"/>
<feBlend mode="normal" in2="BackgroundImageFix" result="effect1_dropShadow_1431_58857"/>
<feBlend mode="normal" in="SourceGraphic" in2="effect1_dropShadow_1431_58857" result="shape"/>
</filter>
</defs>
</svg>
