<svg width="102" height="51" viewBox="0 0 102 51" fill="none" xmlns="http://www.w3.org/2000/svg">
<g opacity="0.56" filter="url(#filter0_d_1431_59473)">
<mask id="path-1-outside-1_1431_59473" maskUnits="userSpaceOnUse" x="3.29688" y="8.43719" width="93" height="37" fill="black">
<rect fill="white" x="3.29688" y="8.43719" width="93" height="37"/>
<path d="M6.89283 41.4372V12.1344H26.5984V17.4443H12.9894V24.0915H25.8118V29.4014H12.9894V36.1273H26.5984V41.4372H6.89283ZM43.0736 41.9092C41.2381 41.9092 39.5074 41.5814 37.8817 40.9259C36.2822 40.2441 34.8924 39.287 33.7124 38.0546C32.5587 36.8222 31.6933 35.3669 31.1165 33.6887L36.1117 31.4467C36.8459 33.0462 37.8555 34.3049 39.1403 35.2226C40.4514 36.1404 41.8936 36.5993 43.4669 36.5993C44.306 36.5993 45.0271 36.4682 45.6302 36.206C46.2333 35.9437 46.7053 35.5898 47.0462 35.144C47.3871 34.672 47.5575 34.1213 47.5575 33.492C47.5575 32.8102 47.3477 32.2334 46.9282 31.7614C46.5086 31.2632 45.8531 30.8698 44.9615 30.5814L39.219 28.6934C36.8853 27.933 35.1284 26.8579 33.9484 25.4682C32.7684 24.0522 32.1785 22.3609 32.1785 20.3943C32.1785 18.6636 32.598 17.1428 33.4371 15.8317C34.3024 14.5206 35.4955 13.498 37.0164 12.7637C38.5634 12.0295 40.3334 11.6624 42.3263 11.6624C44.0831 11.6624 45.7089 11.964 47.2035 12.5671C48.6981 13.1702 49.983 14.0224 51.0581 15.1237C52.1594 16.225 52.9854 17.5492 53.536 19.0963L48.5801 21.3382C48.0295 19.9747 47.2035 18.9127 46.1022 18.1523C45.0009 17.3657 43.7422 16.9723 42.3263 16.9723C41.5134 16.9723 40.7923 17.1034 40.163 17.3657C39.5336 17.6279 39.0485 18.0081 38.7077 18.5063C38.3668 18.9783 38.1963 19.5289 38.1963 20.1583C38.1963 20.84 38.4192 21.4431 38.865 21.9676C39.3108 22.4658 39.9794 22.8591 40.871 23.1475L46.4955 24.9568C48.8555 25.7173 50.6123 26.7793 51.7661 28.1428C52.9461 29.5063 53.536 31.1714 53.536 33.138C53.536 34.8424 53.0903 36.3633 52.1987 37.7006C51.3072 39.0117 50.0748 40.0474 48.5015 40.8079C46.9544 41.5421 45.1451 41.9092 43.0736 41.9092ZM65.5113 41.4372V17.4443H58.0774V12.1344H78.9237V17.4443H71.6078V41.4372H65.5113ZM81.4299 41.4372V35.9306H83.1999C84.3799 35.9306 85.3238 35.6029 86.0318 34.9473C86.766 34.2656 87.1331 33.374 87.1331 32.2727V12.1344H93.2297V31.9974C93.2297 33.8853 92.8232 35.5373 92.0104 36.9533C91.1975 38.3693 90.0306 39.4706 88.5098 40.2572C87.0151 41.0439 85.2452 41.4372 83.1999 41.4372H81.4299Z"/>
</mask>
<path d="M6.89283 41.4372V12.1344H26.5984V17.4443H12.9894V24.0915H25.8118V29.4014H12.9894V36.1273H26.5984V41.4372H6.89283ZM43.0736 41.9092C41.2381 41.9092 39.5074 41.5814 37.8817 40.9259C36.2822 40.2441 34.8924 39.287 33.7124 38.0546C32.5587 36.8222 31.6933 35.3669 31.1165 33.6887L36.1117 31.4467C36.8459 33.0462 37.8555 34.3049 39.1403 35.2226C40.4514 36.1404 41.8936 36.5993 43.4669 36.5993C44.306 36.5993 45.0271 36.4682 45.6302 36.206C46.2333 35.9437 46.7053 35.5898 47.0462 35.144C47.3871 34.672 47.5575 34.1213 47.5575 33.492C47.5575 32.8102 47.3477 32.2334 46.9282 31.7614C46.5086 31.2632 45.8531 30.8698 44.9615 30.5814L39.219 28.6934C36.8853 27.933 35.1284 26.8579 33.9484 25.4682C32.7684 24.0522 32.1785 22.3609 32.1785 20.3943C32.1785 18.6636 32.598 17.1428 33.4371 15.8317C34.3024 14.5206 35.4955 13.498 37.0164 12.7637C38.5634 12.0295 40.3334 11.6624 42.3263 11.6624C44.0831 11.6624 45.7089 11.964 47.2035 12.5671C48.6981 13.1702 49.983 14.0224 51.0581 15.1237C52.1594 16.225 52.9854 17.5492 53.536 19.0963L48.5801 21.3382C48.0295 19.9747 47.2035 18.9127 46.1022 18.1523C45.0009 17.3657 43.7422 16.9723 42.3263 16.9723C41.5134 16.9723 40.7923 17.1034 40.163 17.3657C39.5336 17.6279 39.0485 18.0081 38.7077 18.5063C38.3668 18.9783 38.1963 19.5289 38.1963 20.1583C38.1963 20.84 38.4192 21.4431 38.865 21.9676C39.3108 22.4658 39.9794 22.8591 40.871 23.1475L46.4955 24.9568C48.8555 25.7173 50.6123 26.7793 51.7661 28.1428C52.9461 29.5063 53.536 31.1714 53.536 33.138C53.536 34.8424 53.0903 36.3633 52.1987 37.7006C51.3072 39.0117 50.0748 40.0474 48.5015 40.8079C46.9544 41.5421 45.1451 41.9092 43.0736 41.9092ZM65.5113 41.4372V17.4443H58.0774V12.1344H78.9237V17.4443H71.6078V41.4372H65.5113ZM81.4299 41.4372V35.9306H83.1999C84.3799 35.9306 85.3238 35.6029 86.0318 34.9473C86.766 34.2656 87.1331 33.374 87.1331 32.2727V12.1344H93.2297V31.9974C93.2297 33.8853 92.8232 35.5373 92.0104 36.9533C91.1975 38.3693 90.0306 39.4706 88.5098 40.2572C87.0151 41.0439 85.2452 41.4372 83.1999 41.4372H81.4299Z" fill="#F5FBFF"/>
<path d="M6.89283 41.4372H4.17425V44.1558H6.89283V41.4372ZM6.89283 12.1344V9.41584H4.17425V12.1344H6.89283ZM26.5984 12.1344H29.317V9.41584H26.5984V12.1344ZM26.5984 17.4443V20.1629H29.317V17.4443H26.5984ZM12.9894 17.4443V14.7257H10.2708V17.4443H12.9894ZM12.9894 24.0915H10.2708V26.8101H12.9894V24.0915ZM25.8118 24.0915H28.5304V21.373H25.8118V24.0915ZM25.8118 29.4014V32.12H28.5304V29.4014H25.8118ZM12.9894 29.4014V26.6828H10.2708V29.4014H12.9894ZM12.9894 36.1273H10.2708V38.8459H12.9894V36.1273ZM26.5984 36.1273H29.317V33.4087H26.5984V36.1273ZM26.5984 41.4372V44.1558H29.317V41.4372H26.5984ZM6.89283 41.4372H9.6114V12.1344H6.89283H4.17425V41.4372H6.89283ZM6.89283 12.1344V14.853H26.5984V12.1344V9.41584H6.89283V12.1344ZM26.5984 12.1344H23.8799V17.4443H26.5984H29.317V12.1344H26.5984ZM26.5984 17.4443V14.7257H12.9894V17.4443V20.1629H26.5984V17.4443ZM12.9894 17.4443H10.2708V24.0915H12.9894H15.708V17.4443H12.9894ZM12.9894 24.0915V26.8101H25.8118V24.0915V21.373H12.9894V24.0915ZM25.8118 24.0915H23.0932V29.4014H25.8118H28.5304V24.0915H25.8118ZM25.8118 29.4014V26.6828H12.9894V29.4014V32.12H25.8118V29.4014ZM12.9894 29.4014H10.2708V36.1273H12.9894H15.708V29.4014H12.9894ZM12.9894 36.1273V38.8459H26.5984V36.1273V33.4087H12.9894V36.1273ZM26.5984 36.1273H23.8799V41.4372H26.5984H29.317V36.1273H26.5984ZM26.5984 41.4372V38.7186H6.89283V41.4372V44.1558H26.5984V41.4372ZM37.8817 40.9259L36.8157 43.4268L36.8403 43.4372L36.865 43.4472L37.8817 40.9259ZM33.7124 38.0546L31.7278 39.9125L31.7382 39.9237L31.7488 39.9347L33.7124 38.0546ZM31.1165 33.6887L30.0033 31.2085L27.7386 32.2249L28.5456 34.5724L31.1165 33.6887ZM36.1117 31.4467L38.5824 30.3126L37.4579 27.8627L34.9985 28.9665L36.1117 31.4467ZM39.1403 35.2226L37.5602 37.4348L37.5707 37.4424L37.5813 37.4498L39.1403 35.2226ZM45.6302 36.206L46.7142 38.6991L46.7142 38.6991L45.6302 36.206ZM47.0462 35.144L49.2057 36.7954L49.2283 36.7658L49.2501 36.7357L47.0462 35.144ZM46.9282 31.7614L44.8487 33.5125L44.8721 33.5403L44.8963 33.5675L46.9282 31.7614ZM44.9615 30.5814L44.1125 33.164L44.1247 33.168L44.9615 30.5814ZM39.219 28.6934L40.0681 26.1108L40.0612 26.1086L39.219 28.6934ZM33.9484 25.4682L31.86 27.2086L31.868 27.2182L31.8761 27.2277L33.9484 25.4682ZM33.4371 15.8317L31.1681 14.3342L31.1576 14.3501L31.1473 14.3662L33.4371 15.8317ZM37.0164 12.7637L35.8508 10.3077L35.8426 10.3116L35.8345 10.3155L37.0164 12.7637ZM47.2035 12.5671L48.2208 10.046L48.2208 10.046L47.2035 12.5671ZM51.0581 15.1237L49.1127 17.0227L49.1242 17.0344L49.1358 17.046L51.0581 15.1237ZM53.536 19.0963L54.6566 21.5732L56.9362 20.5419L56.0972 18.1847L53.536 19.0963ZM48.5801 21.3382L46.0594 22.3563L47.12 24.9826L49.7006 23.8152L48.5801 21.3382ZM46.1022 18.1523L44.522 20.3645L44.5397 20.3771L44.5575 20.3894L46.1022 18.1523ZM40.163 17.3657L41.2086 19.8751L41.2086 19.8751L40.163 17.3657ZM38.7077 18.5063L40.9116 20.098L40.9318 20.07L40.9513 20.0414L38.7077 18.5063ZM38.865 21.9676L36.7936 23.7282L36.816 23.7546L36.839 23.7803L38.865 21.9676ZM40.871 23.1475L40.0341 25.7341L40.0385 25.7355L40.871 23.1475ZM46.4955 24.9568L47.3293 22.3693L47.328 22.3689L46.4955 24.9568ZM51.7661 28.1428L49.6908 29.8988L49.7005 29.9103L49.7104 29.9218L51.7661 28.1428ZM52.1987 37.7006L54.4468 39.2293L54.4538 39.219L54.4607 39.2086L52.1987 37.7006ZM48.5015 40.8079L49.667 43.2639L49.6758 43.2598L49.6845 43.2555L48.5015 40.8079ZM43.0736 41.9092V39.1906C41.5698 39.1906 40.1859 38.9237 38.8983 38.4046L37.8817 40.9259L36.865 43.4472C38.829 44.2391 40.9063 44.6278 43.0736 44.6278V41.9092ZM37.8817 40.9259L38.9476 38.425C37.6796 37.8845 36.5969 37.1363 35.6761 36.1745L33.7124 38.0546L31.7488 39.9347C33.1879 41.4377 34.8847 42.6037 36.8157 43.4268L37.8817 40.9259ZM33.7124 38.0546L35.697 36.1967C34.8185 35.2583 34.1462 34.1396 33.6874 32.8049L31.1165 33.6887L28.5456 34.5724C29.2405 36.5941 30.2988 38.3861 31.7278 39.9125L33.7124 38.0546ZM31.1165 33.6887L32.2296 36.1689L37.2249 33.9269L36.1117 31.4467L34.9985 28.9665L30.0033 31.2085L31.1165 33.6887ZM36.1117 31.4467L33.641 32.5808C34.5498 34.5607 35.8467 36.2109 37.5602 37.4348L39.1403 35.2226L40.7205 33.0105C39.8642 32.3989 39.142 31.5318 38.5824 30.3126L36.1117 31.4467ZM39.1403 35.2226L37.5813 37.4498C39.3409 38.6815 41.3256 39.3179 43.4669 39.3179V36.5993V33.8807C42.4616 33.8807 41.5619 33.5993 40.6993 32.9955L39.1403 35.2226ZM43.4669 36.5993V39.3179C44.58 39.3179 45.6886 39.145 46.7142 38.6991L45.6302 36.206L44.5462 33.7128C44.3656 33.7914 44.032 33.8807 43.4669 33.8807V36.5993ZM45.6302 36.206L46.7142 38.6991C47.6682 38.2843 48.5389 37.6673 49.2057 36.7954L47.0462 35.144L44.8866 33.4926C44.8717 33.5122 44.7983 33.6032 44.5462 33.7128L45.6302 36.206ZM47.0462 35.144L49.2501 36.7357C49.953 35.7623 50.2761 34.644 50.2761 33.492H47.5575H44.8389C44.8389 33.5265 44.8366 33.5487 44.8349 33.5606C44.8332 33.5723 44.8318 33.5758 44.8326 33.5732C44.8335 33.5704 44.8354 33.5653 44.8383 33.5595C44.8412 33.5536 44.8432 33.551 44.8423 33.5523L47.0462 35.144ZM47.5575 33.492H50.2761C50.2761 32.2019 49.8587 30.9662 48.9601 29.9553L46.9282 31.7614L44.8963 33.5675C44.8926 33.5634 44.8833 33.5521 44.8723 33.5337C44.8613 33.5153 44.852 33.4956 44.8453 33.4771C44.8421 33.4683 44.8399 33.4609 44.8385 33.4555C44.837 33.4501 44.8366 33.4472 44.8366 33.4473C44.8366 33.4474 44.8372 33.4508 44.8377 33.4581C44.8383 33.4653 44.8389 33.4765 44.8389 33.492H47.5575ZM46.9282 31.7614L49.0076 30.0102C48.1465 28.9876 46.973 28.3748 45.7984 27.9948L44.9615 30.5814L44.1247 33.168C44.7332 33.3648 44.8707 33.5387 44.8487 33.5125L46.9282 31.7614ZM44.9615 30.5814L45.8106 27.9988L40.0681 26.1109L39.219 28.6934L38.3699 31.276L44.1125 33.164L44.9615 30.5814ZM39.219 28.6934L40.0612 26.1086C38.0454 25.4518 36.7807 24.6037 36.0208 23.7086L33.9484 25.4682L31.8761 27.2277C33.4761 29.1122 35.7251 30.4142 38.3767 31.2783L39.219 28.6934ZM33.9484 25.4682L36.0369 23.7278C35.2925 22.8345 34.897 21.7709 34.897 20.3943H32.1785H29.4599C29.4599 22.9509 30.2444 25.2698 31.86 27.2086L33.9484 25.4682ZM32.1785 20.3943H34.897C34.897 19.123 35.1985 18.1228 35.7269 17.2971L33.4371 15.8317L31.1473 14.3662C29.9975 16.1628 29.4599 18.2043 29.4599 20.3943H32.1785ZM33.4371 15.8317L35.706 17.3292C36.2811 16.4579 37.0845 15.7496 38.1983 15.212L37.0164 12.7637L35.8345 10.3155C33.9065 11.2463 32.3237 12.5833 31.1681 14.3342L33.4371 15.8317ZM37.0164 12.7637L38.1819 15.2198C39.3097 14.6846 40.6709 14.381 42.3263 14.381V11.6624V8.94385C39.9959 8.94385 37.8172 9.37452 35.8508 10.3077L37.0164 12.7637ZM42.3263 11.6624V14.381C43.766 14.381 45.0429 14.6268 46.1862 15.0882L47.2035 12.5671L48.2208 10.046C46.3748 9.30115 44.4002 8.94385 42.3263 8.94385V11.6624ZM47.2035 12.5671L46.1862 15.0882C47.3486 15.5572 48.313 16.2035 49.1127 17.0227L51.0581 15.1237L53.0034 13.2247C51.653 11.8413 50.0477 10.7832 48.2208 10.046L47.2035 12.5671ZM51.0581 15.1237L49.1358 17.046C49.9363 17.8465 50.552 18.8198 50.9749 20.0079L53.536 19.0963L56.0972 18.1847C55.4188 16.2786 54.3825 14.6035 52.9804 13.2014L51.0581 15.1237ZM53.536 19.0963L52.4155 16.6194L47.4596 18.8613L48.5801 21.3382L49.7006 23.8152L54.6566 21.5732L53.536 19.0963ZM48.5801 21.3382L51.1009 20.3202C50.3716 18.5143 49.2287 17.0074 47.6469 15.9152L46.1022 18.1523L44.5575 20.3894C45.1783 20.8181 45.6874 21.4351 46.0594 22.3563L48.5801 21.3382ZM46.1022 18.1523L47.6823 15.9401C46.0978 14.8083 44.281 14.2538 42.3263 14.2538V16.9723V19.6909C43.2035 19.6909 43.904 19.923 44.522 20.3645L46.1022 18.1523ZM42.3263 16.9723V14.2538C41.2221 14.2538 40.1352 14.4321 39.1174 14.8562L40.163 17.3657L41.2086 19.8751C41.4493 19.7748 41.8046 19.6909 42.3263 19.6909V16.9723ZM40.163 17.3657L39.1174 14.8562C38.0676 15.2936 37.1389 15.9848 36.464 16.9712L38.7077 18.5063L40.9513 20.0414C40.9582 20.0314 40.9997 19.9621 41.2086 19.8751L40.163 17.3657ZM38.7077 18.5063L36.5038 16.9146C35.8008 17.8879 35.4778 19.0063 35.4778 20.1583H38.1963H40.9149C40.9149 20.1238 40.9172 20.1016 40.9189 20.0897C40.9206 20.078 40.922 20.0745 40.9212 20.0771C40.9203 20.0799 40.9184 20.085 40.9155 20.0908C40.9126 20.0966 40.9107 20.0992 40.9116 20.098L38.7077 18.5063ZM38.1963 20.1583H35.4778C35.4778 21.4919 35.9344 22.7175 36.7936 23.7282L38.865 21.9676L40.9364 20.2069C40.9194 20.1869 40.9123 20.1754 40.9108 20.1728C40.9094 20.1705 40.9111 20.1731 40.9135 20.1795C40.9159 20.1859 40.9167 20.1903 40.9167 20.1902C40.9166 20.1898 40.9149 20.18 40.9149 20.1583H38.1963ZM38.865 21.9676L36.839 23.7803C37.7093 24.753 38.8595 25.3541 40.0341 25.7341L40.871 23.1475L41.7078 20.561C41.0993 20.3641 40.9122 20.1786 40.891 20.1548L38.865 21.9676ZM40.871 23.1475L40.0385 25.7355L45.663 27.5448L46.4955 24.9568L47.328 22.3689L41.7034 20.5596L40.871 23.1475ZM46.4955 24.9568L45.6617 27.5444C47.7183 28.2071 48.9689 29.0457 49.6908 29.8988L51.7661 28.1428L53.8414 26.3867C52.2558 24.5128 49.9926 23.2275 47.3293 22.3693L46.4955 24.9568ZM51.7661 28.1428L49.7104 29.9218C50.4228 30.745 50.8175 31.7609 50.8175 33.138H53.536H56.2546C56.2546 30.5818 55.4693 28.2676 53.8218 26.3638L51.7661 28.1428ZM53.536 33.138H50.8175C50.8175 34.3399 50.5122 35.3295 49.9367 36.1926L52.1987 37.7006L54.4607 39.2086C55.6684 37.3971 56.2546 35.345 56.2546 33.138H53.536ZM52.1987 37.7006L49.9507 36.1719C49.3542 37.0491 48.5073 37.7856 47.3184 38.3602L48.5015 40.8079L49.6845 43.2555C51.6423 42.3093 53.2602 40.9742 54.4468 39.2293L52.1987 37.7006ZM48.5015 40.8079L47.3359 38.3518C46.2214 38.8808 44.8251 39.1906 43.0736 39.1906V41.9092V44.6278C45.4651 44.6278 47.6874 44.2034 49.667 43.2639L48.5015 40.8079ZM65.5113 41.4372H62.7927V44.1558H65.5113V41.4372ZM65.5113 17.4443H68.2299V14.7257H65.5113V17.4443ZM58.0774 17.4443H55.3588V20.1629H58.0774V17.4443ZM58.0774 12.1344V9.41584H55.3588V12.1344H58.0774ZM78.9237 12.1344H81.6423V9.41584H78.9237V12.1344ZM78.9237 17.4443V20.1629H81.6423V17.4443H78.9237ZM71.6078 17.4443V14.7257H68.8893V17.4443H71.6078ZM71.6078 41.4372V44.1558H74.3264V41.4372H71.6078ZM65.5113 41.4372H68.2299V17.4443H65.5113H62.7927V41.4372H65.5113ZM65.5113 17.4443V14.7257H58.0774V17.4443V20.1629H65.5113V17.4443ZM58.0774 17.4443H60.796V12.1344H58.0774H55.3588V17.4443H58.0774ZM58.0774 12.1344V14.853H78.9237V12.1344V9.41584H58.0774V12.1344ZM78.9237 12.1344H76.2051V17.4443H78.9237H81.6423V12.1344H78.9237ZM78.9237 17.4443V14.7257H71.6078V17.4443V20.1629H78.9237V17.4443ZM71.6078 17.4443H68.8893V41.4372H71.6078H74.3264V17.4443H71.6078ZM71.6078 41.4372V38.7186H65.5113V41.4372V44.1558H71.6078V41.4372ZM81.4299 41.4372H78.7113V44.1558H81.4299V41.4372ZM81.4299 35.9306V33.2121H78.7113V35.9306H81.4299ZM86.0318 34.9473L87.8788 36.9421L87.8817 36.9395L86.0318 34.9473ZM87.1331 12.1344V9.41584H84.4146V12.1344H87.1331ZM93.2297 12.1344H95.9483V9.41584H93.2297V12.1344ZM88.5098 40.2572L87.2608 37.8425L87.2522 37.847L87.2436 37.8515L88.5098 40.2572ZM81.4299 41.4372H84.1485V35.9306H81.4299H78.7113V41.4372H81.4299ZM81.4299 35.9306V38.6492H83.1999V35.9306V33.2121H81.4299V35.9306ZM83.1999 35.9306V38.6492C84.9042 38.6492 86.5618 38.1616 87.8788 36.9421L86.0318 34.9473L84.1848 32.9525C84.0859 33.0441 83.8555 33.2121 83.1999 33.2121V35.9306ZM86.0318 34.9473L87.8817 36.9395C89.2281 35.6892 89.8517 34.0466 89.8517 32.2727H87.1331H84.4146C84.4146 32.7015 84.3039 32.8419 84.182 32.9552L86.0318 34.9473ZM87.1331 32.2727H89.8517V12.1344H87.1331H84.4146V32.2727H87.1331ZM87.1331 12.1344V14.853H93.2297V12.1344V9.41584H87.1331V12.1344ZM93.2297 12.1344H90.5111V31.9974H93.2297H95.9483V12.1344H93.2297ZM93.2297 31.9974H90.5111C90.5111 33.4855 90.1943 34.6563 89.6527 35.5998L92.0104 36.9533L94.3681 38.3068C95.4522 36.4183 95.9483 34.2851 95.9483 31.9974H93.2297ZM92.0104 36.9533L89.6527 35.5998C89.1128 36.5402 88.3416 37.2835 87.2608 37.8425L88.5098 40.2572L89.7588 42.6719C91.7197 41.6576 93.2822 40.1983 94.3681 38.3068L92.0104 36.9533ZM88.5098 40.2572L87.2436 37.8515C86.2135 38.3936 84.8962 38.7186 83.1999 38.7186V41.4372V44.1558C85.5942 44.1558 87.8167 43.6941 89.7759 42.6629L88.5098 40.2572ZM83.1999 41.4372V38.7186H81.4299V41.4372V44.1558H83.1999V41.4372Z" fill="#7CD4FD" mask="url(#path-1-outside-1_1431_59473)"/>
</g>
<mask id="path-3-outside-2_1431_59473" maskUnits="userSpaceOnUse" x="5.29688" y="10.4372" width="90" height="33" fill="black">
<rect fill="white" x="5.29688" y="10.4372" width="90" height="33"/>
<path d="M7.17792 41.4372V12.1344H26.8835V17.4443H13.2745V24.0915H26.0969V29.4014H13.2745V36.1273H26.8835V41.4372H7.17792ZM43.3587 41.9092C41.5232 41.9092 39.7925 41.5814 38.1668 40.9259C36.5672 40.2441 35.1775 39.287 33.9975 38.0546C32.8438 36.8222 31.9784 35.3669 31.4016 33.6887L36.3968 31.4467C37.131 33.0462 38.1405 34.3049 39.4254 35.2226C40.7365 36.1404 42.1787 36.5993 43.752 36.5993C44.5911 36.5993 45.3122 36.4682 45.9153 36.206C46.5184 35.9437 46.9904 35.5898 47.3313 35.144C47.6721 34.672 47.8426 34.1213 47.8426 33.492C47.8426 32.8102 47.6328 32.2334 47.2133 31.7614C46.7937 31.2632 46.1382 30.8698 45.2466 30.5814L39.5041 28.6934C37.1703 27.933 35.4135 26.8579 34.2335 25.4682C33.0535 24.0522 32.4635 22.3609 32.4635 20.3943C32.4635 18.6636 32.8831 17.1428 33.7222 15.8317C34.5875 14.5206 35.7806 13.498 37.3015 12.7637C38.8485 12.0295 40.6185 11.6624 42.6114 11.6624C44.3682 11.6624 45.994 11.964 47.4886 12.5671C48.9832 13.1702 50.2681 14.0224 51.3432 15.1237C52.4445 16.225 53.2705 17.5492 53.8211 19.0963L48.8652 21.3382C48.3146 19.9747 47.4886 18.9127 46.3873 18.1523C45.286 17.3657 44.0273 16.9723 42.6114 16.9723C41.7985 16.9723 41.0774 17.1034 40.4481 17.3657C39.8187 17.6279 39.3336 18.0081 38.9928 18.5063C38.6519 18.9783 38.4814 19.5289 38.4814 20.1583C38.4814 20.84 38.7043 21.4431 39.1501 21.9676C39.5959 22.4658 40.2645 22.8591 41.156 23.1475L46.7806 24.9568C49.1406 25.7173 50.8974 26.7793 52.0512 28.1428C53.2312 29.5063 53.8211 31.1714 53.8211 33.138C53.8211 34.8424 53.3754 36.3633 52.4838 37.7006C51.5923 39.0117 50.3599 40.0474 48.7866 40.8079C47.2395 41.5421 45.4302 41.9092 43.3587 41.9092ZM65.7964 41.4372V17.4443H58.3625V12.1344H79.2088V17.4443H71.8929V41.4372H65.7964ZM81.715 41.4372V35.9306H83.485C84.6649 35.9306 85.6089 35.6029 86.3169 34.9473C87.0511 34.2656 87.4182 33.374 87.4182 32.2727V12.1344H93.5148V31.9974C93.5148 33.8853 93.1083 35.5373 92.2955 36.9533C91.4826 38.3693 90.3157 39.4706 88.7949 40.2572C87.3002 41.0439 85.5303 41.4372 83.485 41.4372H81.715Z"/>
</mask>
<path d="M7.17792 41.4372V12.1344H26.8835V17.4443H13.2745V24.0915H26.0969V29.4014H13.2745V36.1273H26.8835V41.4372H7.17792ZM43.3587 41.9092C41.5232 41.9092 39.7925 41.5814 38.1668 40.9259C36.5672 40.2441 35.1775 39.287 33.9975 38.0546C32.8438 36.8222 31.9784 35.3669 31.4016 33.6887L36.3968 31.4467C37.131 33.0462 38.1405 34.3049 39.4254 35.2226C40.7365 36.1404 42.1787 36.5993 43.752 36.5993C44.5911 36.5993 45.3122 36.4682 45.9153 36.206C46.5184 35.9437 46.9904 35.5898 47.3313 35.144C47.6721 34.672 47.8426 34.1213 47.8426 33.492C47.8426 32.8102 47.6328 32.2334 47.2133 31.7614C46.7937 31.2632 46.1382 30.8698 45.2466 30.5814L39.5041 28.6934C37.1703 27.933 35.4135 26.8579 34.2335 25.4682C33.0535 24.0522 32.4635 22.3609 32.4635 20.3943C32.4635 18.6636 32.8831 17.1428 33.7222 15.8317C34.5875 14.5206 35.7806 13.498 37.3015 12.7637C38.8485 12.0295 40.6185 11.6624 42.6114 11.6624C44.3682 11.6624 45.994 11.964 47.4886 12.5671C48.9832 13.1702 50.2681 14.0224 51.3432 15.1237C52.4445 16.225 53.2705 17.5492 53.8211 19.0963L48.8652 21.3382C48.3146 19.9747 47.4886 18.9127 46.3873 18.1523C45.286 17.3657 44.0273 16.9723 42.6114 16.9723C41.7985 16.9723 41.0774 17.1034 40.4481 17.3657C39.8187 17.6279 39.3336 18.0081 38.9928 18.5063C38.6519 18.9783 38.4814 19.5289 38.4814 20.1583C38.4814 20.84 38.7043 21.4431 39.1501 21.9676C39.5959 22.4658 40.2645 22.8591 41.156 23.1475L46.7806 24.9568C49.1406 25.7173 50.8974 26.7793 52.0512 28.1428C53.2312 29.5063 53.8211 31.1714 53.8211 33.138C53.8211 34.8424 53.3754 36.3633 52.4838 37.7006C51.5923 39.0117 50.3599 40.0474 48.7866 40.8079C47.2395 41.5421 45.4302 41.9092 43.3587 41.9092ZM65.7964 41.4372V17.4443H58.3625V12.1344H79.2088V17.4443H71.8929V41.4372H65.7964ZM81.715 41.4372V35.9306H83.485C84.6649 35.9306 85.6089 35.6029 86.3169 34.9473C87.0511 34.2656 87.4182 33.374 87.4182 32.2727V12.1344H93.5148V31.9974C93.5148 33.8853 93.1083 35.5373 92.2955 36.9533C91.4826 38.3693 90.3157 39.4706 88.7949 40.2572C87.3002 41.0439 85.5303 41.4372 83.485 41.4372H81.715Z" fill="#F5FBFF"/>
<path d="M7.17792 41.4372H6.27173V42.3434H7.17792V41.4372ZM7.17792 12.1344V11.2282H6.27173V12.1344H7.17792ZM26.8835 12.1344H27.7897V11.2282H26.8835V12.1344ZM26.8835 17.4443V18.3505H27.7897V17.4443H26.8835ZM13.2745 17.4443V16.5381H12.3683V17.4443H13.2745ZM13.2745 24.0915H12.3683V24.9977H13.2745V24.0915ZM26.0969 24.0915H27.0031V23.1853H26.0969V24.0915ZM26.0969 29.4014V30.3076H27.0031V29.4014H26.0969ZM13.2745 29.4014V28.4952H12.3683V29.4014H13.2745ZM13.2745 36.1273H12.3683V37.0335H13.2745V36.1273ZM26.8835 36.1273H27.7897V35.2211H26.8835V36.1273ZM26.8835 41.4372V42.3434H27.7897V41.4372H26.8835ZM7.17792 41.4372H8.08411V12.1344H7.17792H6.27173V41.4372H7.17792ZM7.17792 12.1344V13.0406H26.8835V12.1344V11.2282H7.17792V12.1344ZM26.8835 12.1344H25.9774V17.4443H26.8835H27.7897V12.1344H26.8835ZM26.8835 17.4443V16.5381H13.2745V17.4443V18.3505H26.8835V17.4443ZM13.2745 17.4443H12.3683V24.0915H13.2745H14.1807V17.4443H13.2745ZM13.2745 24.0915V24.9977H26.0969V24.0915V23.1853H13.2745V24.0915ZM26.0969 24.0915H25.1907V29.4014H26.0969H27.0031V24.0915H26.0969ZM26.0969 29.4014V28.4952H13.2745V29.4014V30.3076H26.0969V29.4014ZM13.2745 29.4014H12.3683V36.1273H13.2745H14.1807V29.4014H13.2745ZM13.2745 36.1273V37.0335H26.8835V36.1273V35.2211H13.2745V36.1273ZM26.8835 36.1273H25.9774V41.4372H26.8835H27.7897V36.1273H26.8835ZM26.8835 41.4372V40.531H7.17792V41.4372V42.3434H26.8835V41.4372ZM38.1668 40.9259L37.8115 41.7595L37.8196 41.763L37.8279 41.7663L38.1668 40.9259ZM33.9975 38.0546L33.3359 38.6739L33.343 38.6813L33.9975 38.0546ZM31.4016 33.6887L31.0305 32.8619L30.2756 33.2008L30.5446 33.9833L31.4016 33.6887ZM36.3968 31.4467L37.2204 31.0687L36.8455 30.252L36.0257 30.62L36.3968 31.4467ZM39.4254 35.2226L38.8987 35.9601L38.9057 35.965L39.4254 35.2226ZM45.9153 36.206L46.2766 37.037L46.2766 37.037L45.9153 36.206ZM47.3313 35.144L48.0511 35.6944L48.0586 35.6846L48.0659 35.6745L47.3313 35.144ZM47.2133 31.7614L46.5201 32.3451L46.5279 32.3544L46.536 32.3634L47.2133 31.7614ZM45.2466 30.5814L44.9636 31.4423L44.9677 31.4436L45.2466 30.5814ZM39.5041 28.6934L39.7871 27.8326L39.7848 27.8318L39.5041 28.6934ZM34.2335 25.4682L33.5373 26.0483L33.5427 26.0547L34.2335 25.4682ZM33.7222 15.8317L32.9658 15.3325L32.9589 15.3432L33.7222 15.8317ZM37.3015 12.7637L36.9129 11.945L36.9075 11.9477L37.3015 12.7637ZM47.4886 12.5671L47.8277 11.7267L47.8277 11.7267L47.4886 12.5671ZM51.3432 15.1237L50.6947 15.7568L50.7024 15.7645L51.3432 15.1237ZM53.8211 19.0963L54.1946 19.9219L54.9545 19.5782L54.6749 18.7924L53.8211 19.0963ZM48.8652 21.3382L48.025 21.6776L48.3785 22.553L49.2387 22.1639L48.8652 21.3382ZM46.3873 18.1523L45.8606 18.8897L45.8664 18.8939L45.8724 18.898L46.3873 18.1523ZM40.4481 17.3657L40.7966 18.2021L40.7966 18.2021L40.4481 17.3657ZM38.9928 18.5063L39.7274 19.0369L39.7341 19.0275L39.7406 19.018L38.9928 18.5063ZM39.1501 21.9676L38.4596 22.5545L38.4671 22.5632L38.4748 22.5718L39.1501 21.9676ZM41.156 23.1475L40.8771 24.0097L40.8785 24.0102L41.156 23.1475ZM46.7806 24.9568L47.0585 24.0943L47.0581 24.0942L46.7806 24.9568ZM52.0512 28.1428L51.3594 28.7282L51.3659 28.7358L52.0512 28.1428ZM52.4838 37.7006L53.2332 38.2102L53.2378 38.2033L52.4838 37.7006ZM48.7866 40.8079L49.1751 41.6266L49.1809 41.6238L48.7866 40.8079ZM43.3587 41.9092V41.003C41.6337 41.003 40.0187 40.6955 38.5057 40.0854L38.1668 40.9259L37.8279 41.7663C39.5664 42.4673 41.4126 42.8154 43.3587 42.8154V41.9092ZM38.1668 40.9259L38.5221 40.0922C37.0331 39.4576 35.7457 38.5701 34.6521 37.4279L33.9975 38.0546L33.343 38.6813C34.6093 40.0039 36.1014 41.0306 37.8115 41.7595L38.1668 40.9259ZM33.9975 38.0546L34.6591 37.4353C33.5971 36.3009 32.7961 34.9578 32.2585 33.3941L31.4016 33.6887L30.5446 33.9833C31.1608 35.7759 32.0905 37.3435 33.336 38.6739L33.9975 38.0546ZM31.4016 33.6887L31.7726 34.5154L36.7679 32.2735L36.3968 31.4467L36.0257 30.62L31.0305 32.8619L31.4016 33.6887ZM36.3968 31.4467L35.5732 31.8248C36.3656 33.5511 37.471 34.9402 38.8987 35.96L39.4254 35.2226L39.9521 34.4852C38.8101 33.6695 37.8964 32.5414 37.2204 31.0687L36.3968 31.4467ZM39.4254 35.2226L38.9057 35.965C40.3663 36.9874 41.9894 37.5055 43.752 37.5055V36.5993V35.6931C42.368 35.6931 41.1067 35.2934 39.9451 34.4803L39.4254 35.2226ZM43.752 36.5993V37.5055C44.6824 37.5055 45.5327 37.3604 46.2766 37.037L45.9153 36.206L45.554 35.3749C45.0917 35.5759 44.4998 35.6931 43.752 35.6931V36.5993ZM45.9153 36.206L46.2766 37.037C46.9967 36.7239 47.6016 36.2823 48.0511 35.6944L47.3313 35.144L46.6114 34.5935C46.3792 34.8972 46.0401 35.1636 45.554 35.3749L45.9153 36.206ZM47.3313 35.144L48.0659 35.6745C48.5275 35.0354 48.7488 34.2956 48.7488 33.492H47.8426H46.9364C46.9364 33.9471 46.8168 34.3085 46.5966 34.6134L47.3313 35.144ZM47.8426 33.492H48.7488C48.7488 32.6075 48.4698 31.811 47.8906 31.1593L47.2133 31.7614L46.536 32.3634C46.7958 32.6557 46.9364 33.013 46.9364 33.492H47.8426ZM47.2133 31.7614L47.9064 31.1777C47.3397 30.5047 46.5115 30.0382 45.5256 29.7192L45.2466 30.5814L44.9677 31.4436C45.7649 31.7015 46.2478 32.0217 46.5201 32.3451L47.2133 31.7614ZM45.2466 30.5814L45.5297 29.7205L39.7871 27.8326L39.5041 28.6934L39.2211 29.5543L44.9636 31.4423L45.2466 30.5814ZM39.5041 28.6934L39.7848 27.8318C37.5571 27.1059 35.9643 26.1065 34.9243 24.8817L34.2335 25.4682L33.5427 26.0547C34.8627 27.6093 36.7836 28.7601 39.2233 29.555L39.5041 28.6934ZM34.2335 25.4682L34.9297 24.888C33.8949 23.6463 33.3697 22.1642 33.3697 20.3943H32.4635H31.5574C31.5574 22.5576 32.2122 24.4581 33.5374 26.0483L34.2335 25.4682ZM32.4635 20.3943H33.3697C33.3697 18.8168 33.7499 17.4694 34.4854 16.3202L33.7222 15.8317L32.9589 15.3432C32.0163 16.8161 31.5574 18.5105 31.5574 20.3943H32.4635ZM33.7222 15.8317L34.4785 16.3309C35.2471 15.1664 36.3103 14.2485 37.6954 13.5798L37.3015 12.7637L36.9075 11.9477C35.2509 12.7474 33.9279 13.8748 32.9659 15.3325L33.7222 15.8317ZM37.3015 12.7637L37.69 13.5824C39.0973 12.9145 40.731 12.5686 42.6114 12.5686V11.6624V10.7562C40.506 10.7562 38.5998 11.1445 36.9129 11.9451L37.3015 12.7637ZM42.6114 11.6624V12.5686C44.2625 12.5686 45.772 12.8516 47.1495 13.4074L47.4886 12.5671L47.8277 11.7267C46.2159 11.0764 44.4739 10.7562 42.6114 10.7562V11.6624ZM47.4886 12.5671L47.1495 13.4074C48.5334 13.9658 49.7114 14.7494 50.6947 15.7567L51.3432 15.1237L51.9916 14.4907C50.8248 13.2954 49.4331 12.3745 47.8277 11.7267L47.4886 12.5671ZM51.3432 15.1237L50.7024 15.7645C51.7035 16.7655 52.4593 17.9727 52.9674 19.4002L53.8211 19.0963L54.6749 18.7924C54.0816 17.1257 53.1855 15.6845 51.984 14.4829L51.3432 15.1237ZM53.8211 19.0963L53.4476 18.2706L48.4917 20.5126L48.8652 21.3382L49.2387 22.1639L54.1946 19.9219L53.8211 19.0963ZM48.8652 21.3382L49.7055 20.9989C49.0953 19.4879 48.1637 18.2776 46.9022 17.4066L46.3873 18.1523L45.8724 18.898C46.8135 19.5478 47.5339 20.4615 48.025 21.6776L48.8652 21.3382ZM46.3873 18.1523L46.914 17.4149C45.6516 16.5132 44.2069 16.0661 42.6114 16.0661V16.9723V17.8785C43.8477 17.8785 44.9203 18.2181 45.8606 18.8897L46.3873 18.1523ZM42.6114 16.9723V16.0661C41.7014 16.0661 40.8584 16.213 40.0995 16.5292L40.4481 17.3657L40.7966 18.2021C41.2964 17.9939 41.8956 17.8785 42.6114 17.8785V16.9723ZM40.4481 17.3657L40.0995 16.5292C39.3301 16.8498 38.6971 17.3336 38.2449 17.9946L38.9928 18.5063L39.7406 19.018C39.9702 18.6825 40.3074 18.406 40.7966 18.2021L40.4481 17.3657ZM38.9928 18.5063L38.2581 17.9757C37.7965 18.6148 37.5752 19.3547 37.5752 20.1583H38.4814H39.3876C39.3876 19.7032 39.5072 19.3417 39.7274 19.0369L38.9928 18.5063ZM38.4814 20.1583H37.5752C37.5752 21.0573 37.8761 21.8679 38.4596 22.5545L39.1501 21.9676L39.8405 21.3807C39.5326 21.0184 39.3876 20.6228 39.3876 20.1583H38.4814ZM39.1501 21.9676L38.4748 22.5718C39.062 23.2282 39.8912 23.6908 40.8771 24.0097L41.156 23.1475L41.435 22.2854C40.6378 22.0274 40.1297 21.7034 39.8254 21.3633L39.1501 21.9676ZM41.156 23.1475L40.8785 24.0102L46.5031 25.8195L46.7806 24.9568L47.0581 24.0942L41.4335 22.2849L41.156 23.1475ZM46.7806 24.9568L46.5027 25.8194C48.7615 26.5472 50.3496 27.5347 51.3594 28.7281L52.0512 28.1428L52.7429 27.5574C51.4452 26.0238 49.5196 24.8873 47.0585 24.0943L46.7806 24.9568ZM52.0512 28.1428L51.3659 28.7358C52.3901 29.9192 52.9149 31.3679 52.9149 33.138H53.8211H54.7273C54.7273 30.9749 54.0722 29.0934 52.7364 27.5498L52.0512 28.1428ZM53.8211 33.138H52.9149C52.9149 34.6749 52.516 36.0187 51.7298 37.1979L52.4838 37.7006L53.2378 38.2033C54.2347 36.7079 54.7273 35.01 54.7273 33.138H53.8211ZM52.4838 37.7006L51.7345 37.191C50.9413 38.3575 49.8374 39.2935 48.3922 39.992L48.7866 40.8079L49.1809 41.6238C50.8824 40.8014 52.2433 39.6659 53.2332 38.2102L52.4838 37.7006ZM48.7866 40.8079L48.398 39.9892C46.9952 40.655 45.3235 41.003 43.3587 41.003V41.9092V42.8154C45.5369 42.8154 47.4838 42.4292 49.1751 41.6266L48.7866 40.8079ZM65.7964 41.4372H64.8902V42.3434H65.7964V41.4372ZM65.7964 17.4443H66.7026V16.5381H65.7964V17.4443ZM58.3625 17.4443H57.4563V18.3505H58.3625V17.4443ZM58.3625 12.1344V11.2282H57.4563V12.1344H58.3625ZM79.2088 12.1344H80.115V11.2282H79.2088V12.1344ZM79.2088 17.4443V18.3505H80.115V17.4443H79.2088ZM71.8929 17.4443V16.5381H70.9867V17.4443H71.8929ZM71.8929 41.4372V42.3434H72.7991V41.4372H71.8929ZM65.7964 41.4372H66.7026V17.4443H65.7964H64.8902V41.4372H65.7964ZM65.7964 17.4443V16.5381H58.3625V17.4443V18.3505H65.7964V17.4443ZM58.3625 17.4443H59.2687V12.1344H58.3625H57.4563V17.4443H58.3625ZM58.3625 12.1344V13.0406H79.2088V12.1344V11.2282H58.3625V12.1344ZM79.2088 12.1344H78.3026V17.4443H79.2088H80.115V12.1344H79.2088ZM79.2088 17.4443V16.5381H71.8929V17.4443V18.3505H79.2088V17.4443ZM71.8929 17.4443H70.9867V41.4372H71.8929H72.7991V17.4443H71.8929ZM71.8929 41.4372V40.531H65.7964V41.4372V42.3434H71.8929V41.4372ZM81.715 41.4372H80.8088V42.3434H81.715V41.4372ZM81.715 35.9306V35.0244H80.8088V35.9306H81.715ZM86.3169 34.9473L86.9326 35.6122L86.9335 35.6114L86.3169 34.9473ZM87.4182 12.1344V11.2282H86.512V12.1344H87.4182ZM93.5148 12.1344H94.421V11.2282H93.5148V12.1344ZM88.7949 40.2572L88.3785 39.4523L88.3728 39.4553L88.7949 40.2572ZM81.715 41.4372H82.6212V35.9306H81.715H80.8088V41.4372H81.715ZM81.715 35.9306V36.8368H83.485V35.9306V35.0244H81.715V35.9306ZM83.485 35.9306V36.8368C84.8397 36.8368 86.0216 36.4558 86.9326 35.6122L86.3169 34.9473L85.7012 34.2824C85.1963 34.7499 84.4902 35.0244 83.485 35.0244V35.9306ZM86.3169 34.9473L86.9335 35.6114C87.8718 34.7401 88.3244 33.5982 88.3244 32.2727H87.4182H86.512C86.512 33.1498 86.2304 33.791 85.7003 34.2833L86.3169 34.9473ZM87.4182 32.2727H88.3244V12.1344H87.4182H86.512V32.2727H87.4182ZM87.4182 12.1344V13.0406H93.5148V12.1344V11.2282H87.4182V12.1344ZM93.5148 12.1344H92.6086V31.9974H93.5148H94.421V12.1344H93.5148ZM93.5148 31.9974H92.6086C92.6086 33.7521 92.232 35.2436 91.5096 36.5021L92.2955 36.9533L93.0814 37.4044C93.9847 35.831 94.421 34.0186 94.421 31.9974H93.5148ZM92.2955 36.9533L91.5096 36.5021C90.7877 37.7596 89.7527 38.7415 88.3785 39.4523L88.7949 40.2572L89.2112 41.0621C90.8787 40.1996 92.1775 38.9789 93.0814 37.4044L92.2955 36.9533ZM88.7949 40.2572L88.3728 39.4553C87.033 40.1605 85.4139 40.531 83.485 40.531V41.4372V42.3434C85.6466 42.3434 87.5674 41.9273 89.2169 41.0591L88.7949 40.2572ZM83.485 41.4372V40.531H81.715V41.4372V42.3434H83.485V41.4372Z" fill="#36BFFA" mask="url(#path-3-outside-2_1431_59473)"/>
<defs>
<filter id="filter0_d_1431_59473" x="0.820919" y="4.68475" width="100.294" height="44.2021" filterUnits="userSpaceOnUse" color-interpolation-filters="sRGB">
<feFlood flood-opacity="0" result="BackgroundImageFix"/>
<feColorMatrix in="SourceAlpha" type="matrix" values="0 0 0 0 0 0 0 0 0 0 0 0 0 0 0 0 0 0 127 0" result="hardAlpha"/>
<feOffset dx="0.906192"/>
<feGaussianBlur stdDeviation="2.12955"/>
<feComposite in2="hardAlpha" operator="out"/>
<feColorMatrix type="matrix" values="0 0 0 0 0.596154 0 0 0 0 0.878846 0 0 0 0 1 0 0 0 0.6 0"/>
<feBlend mode="normal" in2="BackgroundImageFix" result="effect1_dropShadow_1431_59473"/>
<feBlend mode="normal" in="SourceGraphic" in2="effect1_dropShadow_1431_59473" result="shape"/>
</filter>
</defs>
</svg>
