<svg width="60" height="53" viewBox="0 0 60 53" fill="none" xmlns="http://www.w3.org/2000/svg">
<ellipse cx="31.485" cy="26.0751" rx="27.7746" ry="26.0741" fill="#DCDBDE"/>
<ellipse cx="16.3472" cy="27.1611" rx="10.178" ry="10.5283" fill="white"/>
<path d="M16.3075 19.3438C16.5716 18.5311 17.7214 18.5311 17.9854 19.3438L19.3251 23.4667C19.4432 23.8302 19.7819 24.0762 20.164 24.0762H24.4991C25.3537 24.0762 25.709 25.1698 25.0176 25.6721L21.5105 28.2202C21.2013 28.4448 21.0719 28.843 21.19 29.2064L22.5296 33.3293C22.7937 34.1421 21.8635 34.8179 21.1721 34.3156L17.665 31.7675C17.3558 31.5429 16.9371 31.5429 16.628 31.7675L13.1208 34.3156C12.4295 34.8179 11.4993 34.1421 11.7633 33.3293L13.1029 29.2064C13.221 28.843 13.0917 28.4448 12.7825 28.2202L9.27533 25.6721C8.58399 25.1698 8.93929 24.0762 9.79384 24.0762H14.1289C14.5111 24.0762 14.8498 23.8302 14.9679 23.4667L16.3075 19.3438Z" fill="black"/>
<path d="M50.8899 22.3608C52.4321 28.8638 47.2716 30.1105 41.4363 30.8092C33.6181 31.4958 30.8423 28.3991 30.8422 25.148C30.8422 21.1224 34.6976 18.0259 39.8659 17.5876C46.572 16.6323 50.1234 19.1285 50.8899 22.3608Z" fill="white"/>
<path d="M41.8896 15.815C42.1537 15.0023 43.3035 15.0023 43.5675 15.815L45.1052 20.5474C45.2233 20.9109 45.562 21.157 45.9442 21.157H50.9202C51.7747 21.157 52.13 22.2505 51.4387 22.7528L47.413 25.6776C47.1038 25.9022 46.9745 26.3004 47.0926 26.6639L48.6302 31.3963C48.8943 32.2091 47.9641 32.8849 47.2727 32.3826L43.2471 29.4578C42.9379 29.2331 42.5192 29.2331 42.2101 29.4578L38.1844 32.3826C37.493 32.8849 36.5628 32.2091 36.8269 31.3963L38.3646 26.6639C38.4827 26.3004 38.3533 25.9022 38.0441 25.6776L34.0185 22.7528C33.3271 22.2505 33.6824 21.157 34.537 21.157H39.513C39.8951 21.157 40.2338 20.9109 40.3519 20.5474L41.8896 15.815Z" fill="black"/>
<path d="M13.8792 14.1558C21.374 14.1558 27.4504 20.256 27.4504 27.7808C27.4503 35.3055 21.374 41.4058 13.8792 41.4058C6.38456 41.4055 0.308962 35.3053 0.308838 27.7808C0.308838 20.2561 6.38449 14.156 13.8792 14.1558ZM13.8792 17.2524C8.0877 17.2525 3.39282 21.9662 3.39282 27.7808C3.39288 33.5953 8.08773 38.309 13.8792 38.3091C19.6706 38.3091 24.3654 33.5953 24.3655 27.7808C24.3655 21.9661 19.6707 17.2524 13.8792 17.2524Z" fill="#A19CA6"/>
<path d="M43.3555 11.3374C50.8504 11.3374 56.9258 17.4376 56.9258 24.9624C56.9257 32.4872 50.8503 38.5874 43.3555 38.5874C35.8607 38.5874 29.7852 32.4871 29.7852 24.9624C29.7852 17.4376 35.8606 11.3374 43.3555 11.3374ZM43.5117 14.9976C37.7203 14.9976 33.0254 19.7113 33.0254 25.5259C33.0256 31.3403 37.7204 36.0542 43.5117 36.0542C49.3031 36.0542 53.9978 31.3403 53.998 25.5259C53.998 19.7113 49.3032 14.9976 43.5117 14.9976Z" fill="#A19CA6"/>
<rect width="4.3184" height="2.78661" transform="matrix(0.986719 -0.162434 0.161179 0.986925 25.9082 24.457)" fill="#A19CA6"/>
<path d="M27.0853 34.2683C26.1435 31.7568 28.2625 30.4313 29.4397 30.0825C38.151 28.8268 38.2814 41.2771 32.9714 42.2212C30.617 42.6398 28.0271 42.0119 28.498 39.919C28.8703 38.2645 28.2625 37.4076 27.0853 34.2683Z" fill="black"/>
</svg>
