<svg width="59" height="54" viewBox="0 0 59 54" fill="none" xmlns="http://www.w3.org/2000/svg">
<ellipse cx="31.1884" cy="27.075" rx="27.7755" ry="26.075" fill="#DCDBDE"/>
<path d="M24.9569 29.7277C24.9569 35.5425 20.3998 40.2564 14.7785 40.2564C9.15711 40.2564 4.6001 35.5425 4.6001 29.7277C4.6001 23.9129 6.83912 17.761 16.543 20.8486C26.2469 23.9362 24.9569 23.9129 24.9569 29.7277Z" fill="white"/>
<circle cx="18.3077" cy="28.3472" r="5.29303" fill="black"/>
<path d="M50.5938 23.3612C52.136 29.8643 46.9753 31.1111 41.1398 31.8098C33.3213 32.4964 30.5455 29.3997 30.5454 26.1484C32.4217 22.6136 37.1698 19.3375 41.1396 17.7617C47.6657 15.1713 49.8272 20.1288 50.5938 23.3612Z" fill="white"/>
<circle cx="42.5668" cy="26.142" r="4.85194" fill="black"/>
<path d="M38.5974 32.3169C44.2083 21.4197 52.9086 28.0066 52.9086 28.0066C50.6982 30.3807 44.6428 34.6705 38.5974 32.3169Z" fill="#DCDBDE"/>
<path d="M13.583 15.1553C21.078 15.1554 27.1542 21.2554 27.1543 28.7803C27.1543 36.3053 21.0781 42.4062 13.583 42.4062C6.08786 42.4062 0.0117188 36.3053 0.0117188 28.7803C0.0118548 21.2553 6.08794 15.1553 13.583 15.1553ZM13.582 18.252C7.7907 18.2522 3.09596 22.9658 3.0957 28.7803C3.0957 34.5949 7.79054 39.3093 13.582 39.3096C19.3737 39.3096 24.0693 34.5951 24.0693 28.7803C24.0691 22.9657 19.3736 18.252 13.582 18.252Z" fill="#A19CA6"/>
<path d="M43.0591 12.3369C50.5541 12.3369 56.6302 18.437 56.6304 25.9619C56.6304 33.487 50.5542 39.5879 43.0591 39.5879C35.5641 39.5877 29.4878 33.4869 29.4878 25.9619C29.488 18.4371 35.5642 12.3371 43.0591 12.3369ZM43.3325 15.7598C37.541 15.76 32.8462 20.4734 32.8462 26.2881C32.8462 32.1028 37.541 36.8162 43.3325 36.8164C49.1242 36.8164 53.8198 32.1029 53.8198 26.2881C53.8198 20.4733 49.1242 15.7598 43.3325 15.7598Z" fill="#A19CA6"/>
<rect width="4.31855" height="2.78671" transform="matrix(0.986719 -0.162434 0.161179 0.986925 25.6116 25.457)" fill="#A19CA6"/>
<path d="M26.703 42.8778C23.5754 42.8659 22.7971 40.2649 22.7989 38.9659C24.2972 29.8523 38.2887 34.4124 37.5756 40.0349C37.2594 42.5279 35.6923 44.8603 33.5047 43.6049C31.7752 42.6125 30.6126 42.8925 26.703 42.8778Z" fill="black"/>
<path d="M39.1389 5.16247C39.1389 5.16247 42.5911 5.54652 44.1249 4.87118C45.6587 4.19584 46.9389 1.10969 46.9389 1.10969" stroke="#252B37" stroke-width="1.10165" stroke-linecap="round"/>
<path d="M49.0405 1.80859C49.0405 1.80859 47.4717 4.90763 47.5671 6.58078C47.6626 8.25393 50.1049 10.5339 50.1049 10.5339" stroke="#252B37" stroke-width="1.10165" stroke-linecap="round"/>
<path d="M47.4937 11.6213C47.4937 11.6213 45.7272 8.63055 44.266 7.8099C42.8049 6.98926 39.5684 7.81932 39.5684 7.81932" stroke="#252B37" stroke-width="1.10165" stroke-linecap="round"/>
</svg>
