<svg width="81" height="79" viewBox="0 0 81 79" fill="none" xmlns="http://www.w3.org/2000/svg">
<path d="M19.9749 69.0346C16.1742 67.605 8.80232 62.9059 9.7207 55.5461" stroke="black" stroke-width="6.02362" stroke-linecap="round"/>
<path d="M61.0113 93.9153C28.8482 93.9153 15.7239 72.3529 14.6674 59.2267C13.7101 47.3339 22.363 32.4437 24.6508 32.4437C26.6613 32.4437 25.0529 34.7344 25.8571 35.1164C26.6613 35.4985 32.2906 19.2715 38.9252 15.0714C40.3545 14.1665 39.8156 18.7351 40.5335 17.744C42.343 12.2077 57.4216 0.952879 60.054 0.754764C62.6864 0.55665 69.7269 6.5498 76.1189 16.408C76.2784 14.2276 75.985 13.3211 77.3252 13.1626C79.0003 12.9644 85.9702 21.5625 90.9964 29.0077C95.3857 35.5095 103.863 44.4709 102.858 61.4615C102 75.9702 86.3723 93.9153 61.0113 93.9153Z" fill="url(#paint0_linear_1071_14826)"/>
<path d="M49.1389 96.124L59.5705 81.2116C35.5603 81.3581 21.3818 69.5545 15.7988 62.3917C15.7988 65.2027 16.1755 67.813 16.1755 70.2225C24.1525 84.88 38.7235 92.8573 49.1389 96.124Z" fill="#12B76A"/>
<path d="M69.8108 95.9232L59.5706 81.0108C83.1402 81.1573 97.0585 69.3537 102.539 62.1909C102.539 65.0019 102.169 67.6122 102.169 70.0217C94.3386 84.6792 80.035 92.6565 69.8108 95.9232Z" fill="#12B76A"/>
<path d="M58.9683 78.2539C66.4089 77.4086 69.7757 68.9014 70.297 63.988C70.3331 63.6481 69.9433 63.4353 69.6605 63.6274C67.8815 64.8361 62.9202 67.828 57.1612 68.0138C51.7668 68.1878 47.6862 66.9914 45.9628 66.3732C45.6263 66.2524 45.2792 66.5902 45.4134 66.9216C47.2938 71.5652 51.573 79.0941 58.9683 78.2539Z" fill="#FDFDFD"/>
<path d="M57.5234 67.9968C57.5337 69.4474 57.669 70.9955 57.8789 72.5251C58.1652 74.6107 58.5856 76.6253 58.9902 78.2516C58.9853 78.2522 58.9805 78.254 58.9756 78.2546C58.5623 78.3015 58.1586 78.3204 57.7646 78.3171C57.368 76.6932 56.965 74.725 56.6855 72.6891C56.4744 71.1512 56.3313 69.5549 56.3193 68.029C56.5984 68.0272 56.8813 68.0236 57.168 68.0143C57.2867 68.0105 57.4054 68.0029 57.5234 67.9968ZM50.4248 67.5309C50.8098 67.5994 51.2123 67.6652 51.6318 67.7233C51.6482 68.7354 51.6978 69.8163 51.7979 70.9001C52.0112 73.2102 52.4445 75.4577 53.1992 77.0876C52.5913 76.748 52.0182 76.3484 51.4775 75.905C51.0239 74.3905 50.7524 72.6768 50.5986 71.0114C50.4886 69.8195 50.4378 68.6324 50.4248 67.5309ZM64.5137 66.3679C64.5269 67.585 64.5686 68.88 64.6543 70.1579C64.7563 71.6789 64.9189 73.1658 65.1621 74.4636C65.2023 74.6778 65.2449 74.8856 65.2891 75.0866C64.9665 75.4115 64.6278 75.7196 64.2715 76.0065C64.162 75.5862 64.0644 75.1433 63.9785 74.6852C63.7236 73.3249 63.557 71.7872 63.4531 70.238C63.3761 69.0883 63.3328 67.9265 63.3145 66.8181C63.7274 66.6747 64.1277 66.5237 64.5137 66.3679Z" fill="#E9EAEB"/>
<path d="M57.9194 45.1489H20.0879C18.655 54.2532 23.527 66.4721 39.0036 66.2026C52.0727 65.975 59.3524 55.9603 57.9194 45.1489Z" fill="#181D27"/>
<mask id="mask0_1071_14826" style="mask-type:alpha" maskUnits="userSpaceOnUse" x="20" y="45" width="38" height="22">
<path d="M57.7415 45.2584H20.2964C18.8781 54.3086 23.7004 66.455 39.0189 66.1871C51.9545 65.9608 59.1599 56.0056 57.7415 45.2584Z" fill="#181D27"/>
</mask>
<g mask="url(#mask0_1071_14826)">
<rect x="35.7656" y="38.5876" width="4.00845" height="33.3948" transform="rotate(16.4718 35.7656 38.5876)" fill="white"/>
<rect x="45.3594" y="37.687" width="4.00845" height="33.3948" transform="rotate(16.4718 45.3594 37.687)" fill="white"/>
</g>
<path d="M97.8901 45.1489H60.9087C59.508 54.2532 64.2706 66.4721 79.3994 66.2026C92.1748 65.975 99.2909 55.9603 97.8901 45.1489Z" fill="#181D27"/>
<mask id="mask1_1071_14826" style="mask-type:alpha" maskUnits="userSpaceOnUse" x="60" y="45" width="39" height="22">
<path d="M98.2727 45.2585H60.8276C59.4094 54.3087 64.2317 66.4551 79.5502 66.1871C92.4858 65.9609 99.6911 56.0056 98.2727 45.2585Z" fill="url(#paint1_linear_1071_14826)"/>
</mask>
<g mask="url(#mask1_1071_14826)">
<rect x="76.2959" y="38.5876" width="4.00845" height="33.3948" transform="rotate(16.4718 76.2959 38.5876)" fill="white"/>
<rect x="85.8906" y="37.6868" width="4.00845" height="33.3948" transform="rotate(16.4718 85.8906 37.6868)" fill="white"/>
</g>
<rect x="18.9902" y="41.7106" width="86.3808" height="3.8678" rx="1.9339" fill="#12B76A"/>
<path d="M15.5542 28.1856L5.11467 28.3852L5.11454 28.3784C10.8293 28.1634 15.3531 23.465 15.3497 17.7462L15.3545 17.7461L15.5542 28.1856Z" fill="#FDB022"/>
<path d="M15.5551 28.1856L25.9936 27.986L25.9935 27.9801C20.2747 27.9835 15.5753 23.4608 15.3603 17.746L15.3554 17.7461L15.5551 28.1856Z" fill="#FDB022"/>
<path d="M15.9518 28.2455L5.5123 28.4451L5.51241 28.4509C11.2313 28.4472 15.9313 32.9693 16.1465 38.6841L16.1514 38.684L15.9518 28.2455Z" fill="#FDB022"/>
<path d="M15.9527 28.2445L26.3912 28.0449L26.3913 28.0507C20.6769 28.2662 16.1537 32.9653 16.1572 38.6839L16.1523 38.684L15.9527 28.2445Z" fill="#FDB022"/>
<path d="M26.7434 40.1867L20.3019 41.8675L20.3009 41.8637C23.8116 40.8781 25.9149 37.2906 25.0598 33.7459L25.0627 33.7451L26.7434 40.1867Z" fill="#FDB022"/>
<path d="M26.7431 40.1868L33.1856 38.5058L33.1847 38.5021C29.6398 39.3577 26.0512 37.2552 25.0652 33.7445L25.0624 33.7453L26.7431 40.1868Z" fill="#FDB022"/>
<path d="M26.7442 40.1872L20.3026 41.8679L20.3034 41.8708C23.8482 41.0157 27.4366 43.1186 28.4221 46.6295L28.425 46.6287L26.7442 40.1872Z" fill="#FDB022"/>
<path d="M26.7449 40.1873L33.1874 38.5063L33.1884 38.5101C29.6775 39.4956 27.5734 43.0833 28.4285 46.6281L28.4257 46.6289L26.7449 40.1873Z" fill="#FDB022"/>
<rect x="0.939453" y="40.921" width="12.5209" height="22.4058" rx="0.658994" transform="rotate(-14.541 0.939453 40.921)" fill="#027A48"/>
<rect x="2.22754" y="41.9485" width="10.5439" height="19.4403" rx="0.329497" transform="rotate(-14.541 2.22754 41.9485)" fill="#F2FFF7"/>
<path d="M4.77832 41.2867L9.56246 40.0458L9.64519 40.3647C9.73657 40.717 9.52506 41.0767 9.17276 41.1681L5.66439 42.0781C5.31209 42.1694 4.95243 41.9579 4.86105 41.6056L4.77832 41.2867Z" fill="#027A48"/>
<rect x="14.3008" y="42.5615" width="0.329497" height="2.63598" transform="rotate(-14.541 14.3008 42.5615)" fill="#05603A"/>
<rect x="15.127" y="45.7509" width="0.329497" height="0.988492" transform="rotate(-14.541 15.127 45.7509)" fill="#05603A"/>
<mask id="mask2_1071_14826" style="mask-type:alpha" maskUnits="userSpaceOnUse" x="2" y="39" width="16" height="22">
<rect x="2.22754" y="41.9484" width="10.5439" height="19.4403" rx="0.329497" transform="rotate(-14.541 2.22754 41.9484)" fill="#F6FEF9"/>
</mask>
<g mask="url(#mask2_1071_14826)">
<rect x="10.2256" y="38.4978" width="2.00787" height="23.0445" transform="rotate(9.5251 10.2256 38.4978)" fill="white"/>
<rect x="14.792" y="39.7025" width="2.00787" height="23.0445" transform="rotate(9.5251 14.792 39.7025)" fill="white"/>
</g>
<ellipse cx="6.76264" cy="55.364" rx="4.61811" ry="5.22047" fill="#0A0D12"/>
<defs>
<linearGradient id="paint0_linear_1071_14826" x1="58.767" y1="0.75" x2="58.7571" y2="93.9153" gradientUnits="userSpaceOnUse">
<stop stop-color="#E6F4A6"/>
<stop offset="0.548077" stop-color="#A6F4C5"/>
<stop offset="1" stop-color="#D7FAE5"/>
</linearGradient>
<linearGradient id="paint1_linear_1071_14826" x1="79.5206" y1="45.2585" x2="79.5206" y2="66.1915" gradientUnits="userSpaceOnUse">
<stop stop-color="#181D27"/>
<stop offset="0.734507" stop-color="#57698D"/>
</linearGradient>
</defs>
</svg>
